<svg width="80" height="80" viewBox="0 0 80 80" fill="none" xmlns="http://www.w3.org/2000/svg">
<path fill-rule="evenodd" clip-rule="evenodd" d="M60.1 26.5666C60.5682 27.0354 60.8311 27.6708 60.8311 28.3333C60.8311 28.9958 60.5682 29.6312 60.1 30.1L36.7667 53.4333C36.2979 53.9015 35.6625 54.1644 35 54.1644C34.3375 54.1644 33.7021 53.9015 33.2333 53.4333L19.9 40.1C19.6544 39.8711 19.4574 39.5951 19.3207 39.2884C19.1841 38.9818 19.1106 38.6507 19.1047 38.315C19.0988 37.9794 19.1605 37.6459 19.2863 37.3347C19.412 37.0234 19.5991 36.7406 19.8365 36.5032C20.0739 36.2658 20.3567 36.0786 20.668 35.9529C20.9793 35.8272 21.3127 35.7654 21.6484 35.7713C21.9841 35.7773 22.3151 35.8507 22.6218 35.9874C22.9285 36.124 23.2045 36.321 23.4333 36.5666L35 48.1333L56.5667 26.5666C57.0354 26.0985 57.6708 25.8355 58.3333 25.8355C58.9958 25.8355 59.6312 26.0985 60.1 26.5666Z" fill="black"/>
</svg>
