<svg width="108" height="32" viewBox="0 0 108 32" fill="none" xmlns="http://www.w3.org/2000/svg">
<mask id="path-1-outside-1_26_35" maskUnits="userSpaceOnUse" x="-1" y="-1" width="110" height="34" fill="black">
<rect fill="white" x="-1" y="-1" width="110" height="34"/>
<path d="M32.668 5.36523C32.668 6.27669 32.3424 7.04167 31.6914 7.66016C31.0729 8.3112 30.3079 8.63672 29.3965 8.63672H9.86523C9.24674 8.66927 8.72591 8.81576 8.30273 9.07617C7.91211 9.30404 7.61914 9.58073 7.42383 9.90625C7.22852 10.1992 7.13086 10.5085 7.13086 10.834C7.13086 11.1595 7.22852 11.485 7.42383 11.8105C7.61914 12.1035 7.91211 12.3802 8.30273 12.6406C8.72591 12.8685 9.24674 12.9987 9.86523 13.0312H23.7324C26.0111 13.0964 27.8828 13.6335 29.3477 14.6426C30.8451 15.6191 31.903 16.7585 32.5215 18.0605C33.1725 19.3301 33.498 20.6322 33.498 21.9668C33.498 23.2689 33.1725 24.571 32.5215 25.873C31.8704 27.1426 30.8125 28.2819 29.3477 29.291C27.8828 30.2676 26.0111 30.7559 23.7324 30.7559H23.4395C23.2441 30.7884 23.0488 30.8047 22.8535 30.8047H4.39648C3.48503 30.8047 2.70378 30.4954 2.05273 29.877C1.43424 29.2259 1.125 28.4447 1.125 27.5332C1.125 26.6217 1.45052 25.8568 2.10156 25.2383C2.72005 24.5872 3.48503 24.2617 4.39648 24.2617H24.0254C24.6439 24.2943 25.1484 24.1803 25.5391 23.9199C25.9622 23.6595 26.2715 23.3665 26.4668 23.041C26.6621 22.6829 26.7598 22.3249 26.7598 21.9668C26.7598 21.7389 26.6621 21.4297 26.4668 21.0391C26.2715 20.6159 25.9622 20.2741 25.5391 20.0137C25.1484 19.7533 24.6439 19.6068 24.0254 19.5742H10.1582C7.87956 19.5091 5.99154 18.9883 4.49414 18.0117C3.0293 17.0352 1.97135 15.9284 1.32031 14.6914C0.701823 13.4219 0.392578 12.1361 0.392578 10.834C0.392578 9.56445 0.718099 8.3112 1.36914 7.07422C2.02018 5.80469 3.07812 4.68164 4.54297 3.70508C6.00781 2.72852 7.87956 2.20768 10.1582 2.14258H10.4512C10.6465 2.11003 10.8418 2.09375 11.0371 2.09375H29.3965C30.3079 2.09375 31.0729 2.41927 31.6914 3.07031C32.3424 3.6888 32.668 4.45378 32.668 5.36523ZM49.9531 23.334C49.9531 22.4225 50.2624 21.6576 50.8809 21.0391C51.5319 20.388 52.3132 20.0625 53.2246 20.0625H60.6953L59.4258 16.4492C58.9049 15.1146 58.3841 13.8613 57.8633 12.6895C57.375 11.485 56.8053 10.3945 56.1543 9.41797C55.5684 8.44141 54.901 7.92057 54.1523 7.85547C53.3711 7.92057 52.6712 8.44141 52.0527 9.41797C51.4342 10.3945 50.8646 11.485 50.3438 12.6895C49.8555 13.8613 49.3509 15.1146 48.8301 16.4492L44.1914 29.1445C43.8659 29.8281 43.4427 30.3978 42.9219 30.8535C42.4336 31.2767 41.6849 31.4883 40.6758 31.4883C39.7318 31.4883 38.9505 31.1628 38.332 30.5117C37.7461 29.8607 37.4857 29.0794 37.5508 28.168C37.5833 27.7448 37.681 27.3542 37.8438 26.9961L43.2148 13.1289C44.7122 9.48307 46.2096 6.53711 47.707 4.29102C49.1719 2.07747 51.3203 0.954427 54.1523 0.921875C56.9518 0.954427 59.084 2.07747 60.5488 4.29102C62.0462 6.47201 63.5436 9.41797 65.041 13.1289L70.4121 26.9961C70.5749 27.3542 70.6725 27.7448 70.7051 28.168C70.7702 29.0794 70.4935 29.8607 69.875 30.5117C69.2891 31.1628 68.5241 31.4883 67.5801 31.4883C66.5059 31.4883 65.7083 31.2767 65.1875 30.8535C64.6992 30.3978 64.2923 29.8281 63.9668 29.1445L63.0391 26.6055H53.2246C52.3132 26.6055 51.5482 26.2799 50.9297 25.6289C50.2786 25.0104 49.9531 24.2454 49.9531 23.334ZM86.5742 23.334C86.5742 22.4225 86.8835 21.6576 87.502 21.0391C88.153 20.388 88.9342 20.0625 89.8457 20.0625H97.3164L96.0469 16.4492C95.526 15.1146 95.0052 13.8613 94.4844 12.6895C93.9961 11.485 93.4264 10.3945 92.7754 9.41797C92.1895 8.44141 91.5221 7.92057 90.7734 7.85547C89.9922 7.92057 89.2923 8.44141 88.6738 9.41797C88.0553 10.3945 87.4857 11.485 86.9648 12.6895C86.4766 13.8613 85.972 15.1146 85.4512 16.4492L80.8125 29.1445C80.487 29.8281 80.0638 30.3978 79.543 30.8535C79.0547 31.2767 78.306 31.4883 77.2969 31.4883C76.3529 31.4883 75.5716 31.1628 74.9531 30.5117C74.3672 29.8607 74.1068 29.0794 74.1719 28.168C74.2044 27.7448 74.3021 27.3542 74.4648 26.9961L79.8359 13.1289C81.3333 9.48307 82.8307 6.53711 84.3281 4.29102C85.793 2.07747 87.9414 0.954427 90.7734 0.921875C93.5729 0.954427 95.7051 2.07747 97.1699 4.29102C98.6673 6.47201 100.165 9.41797 101.662 13.1289L107.033 26.9961C107.196 27.3542 107.294 27.7448 107.326 28.168C107.391 29.0794 107.115 29.8607 106.496 30.5117C105.91 31.1628 105.145 31.4883 104.201 31.4883C103.127 31.4883 102.329 31.2767 101.809 30.8535C101.32 30.3978 100.913 29.8281 100.588 29.1445L99.6602 26.6055H89.8457C88.9342 26.6055 88.1693 26.2799 87.5508 25.6289C86.8997 25.0104 86.5742 24.2454 86.5742 23.334Z"/>
</mask>
<path d="M32.668 5.36523C32.668 6.27669 32.3424 7.04167 31.6914 7.66016C31.0729 8.3112 30.3079 8.63672 29.3965 8.63672H9.86523C9.24674 8.66927 8.72591 8.81576 8.30273 9.07617C7.91211 9.30404 7.61914 9.58073 7.42383 9.90625C7.22852 10.1992 7.13086 10.5085 7.13086 10.834C7.13086 11.1595 7.22852 11.485 7.42383 11.8105C7.61914 12.1035 7.91211 12.3802 8.30273 12.6406C8.72591 12.8685 9.24674 12.9987 9.86523 13.0312H23.7324C26.0111 13.0964 27.8828 13.6335 29.3477 14.6426C30.8451 15.6191 31.903 16.7585 32.5215 18.0605C33.1725 19.3301 33.498 20.6322 33.498 21.9668C33.498 23.2689 33.1725 24.571 32.5215 25.873C31.8704 27.1426 30.8125 28.2819 29.3477 29.291C27.8828 30.2676 26.0111 30.7559 23.7324 30.7559H23.4395C23.2441 30.7884 23.0488 30.8047 22.8535 30.8047H4.39648C3.48503 30.8047 2.70378 30.4954 2.05273 29.877C1.43424 29.2259 1.125 28.4447 1.125 27.5332C1.125 26.6217 1.45052 25.8568 2.10156 25.2383C2.72005 24.5872 3.48503 24.2617 4.39648 24.2617H24.0254C24.6439 24.2943 25.1484 24.1803 25.5391 23.9199C25.9622 23.6595 26.2715 23.3665 26.4668 23.041C26.6621 22.6829 26.7598 22.3249 26.7598 21.9668C26.7598 21.7389 26.6621 21.4297 26.4668 21.0391C26.2715 20.6159 25.9622 20.2741 25.5391 20.0137C25.1484 19.7533 24.6439 19.6068 24.0254 19.5742H10.1582C7.87956 19.5091 5.99154 18.9883 4.49414 18.0117C3.0293 17.0352 1.97135 15.9284 1.32031 14.6914C0.701823 13.4219 0.392578 12.1361 0.392578 10.834C0.392578 9.56445 0.718099 8.3112 1.36914 7.07422C2.02018 5.80469 3.07812 4.68164 4.54297 3.70508C6.00781 2.72852 7.87956 2.20768 10.1582 2.14258H10.4512C10.6465 2.11003 10.8418 2.09375 11.0371 2.09375H29.3965C30.3079 2.09375 31.0729 2.41927 31.6914 3.07031C32.3424 3.6888 32.668 4.45378 32.668 5.36523ZM49.9531 23.334C49.9531 22.4225 50.2624 21.6576 50.8809 21.0391C51.5319 20.388 52.3132 20.0625 53.2246 20.0625H60.6953L59.4258 16.4492C58.9049 15.1146 58.3841 13.8613 57.8633 12.6895C57.375 11.485 56.8053 10.3945 56.1543 9.41797C55.5684 8.44141 54.901 7.92057 54.1523 7.85547C53.3711 7.92057 52.6712 8.44141 52.0527 9.41797C51.4342 10.3945 50.8646 11.485 50.3438 12.6895C49.8555 13.8613 49.3509 15.1146 48.8301 16.4492L44.1914 29.1445C43.8659 29.8281 43.4427 30.3978 42.9219 30.8535C42.4336 31.2767 41.6849 31.4883 40.6758 31.4883C39.7318 31.4883 38.9505 31.1628 38.332 30.5117C37.7461 29.8607 37.4857 29.0794 37.5508 28.168C37.5833 27.7448 37.681 27.3542 37.8438 26.9961L43.2148 13.1289C44.7122 9.48307 46.2096 6.53711 47.707 4.29102C49.1719 2.07747 51.3203 0.954427 54.1523 0.921875C56.9518 0.954427 59.084 2.07747 60.5488 4.29102C62.0462 6.47201 63.5436 9.41797 65.041 13.1289L70.4121 26.9961C70.5749 27.3542 70.6725 27.7448 70.7051 28.168C70.7702 29.0794 70.4935 29.8607 69.875 30.5117C69.2891 31.1628 68.5241 31.4883 67.5801 31.4883C66.5059 31.4883 65.7083 31.2767 65.1875 30.8535C64.6992 30.3978 64.2923 29.8281 63.9668 29.1445L63.0391 26.6055H53.2246C52.3132 26.6055 51.5482 26.2799 50.9297 25.6289C50.2786 25.0104 49.9531 24.2454 49.9531 23.334ZM86.5742 23.334C86.5742 22.4225 86.8835 21.6576 87.502 21.0391C88.153 20.388 88.9342 20.0625 89.8457 20.0625H97.3164L96.0469 16.4492C95.526 15.1146 95.0052 13.8613 94.4844 12.6895C93.9961 11.485 93.4264 10.3945 92.7754 9.41797C92.1895 8.44141 91.5221 7.92057 90.7734 7.85547C89.9922 7.92057 89.2923 8.44141 88.6738 9.41797C88.0553 10.3945 87.4857 11.485 86.9648 12.6895C86.4766 13.8613 85.972 15.1146 85.4512 16.4492L80.8125 29.1445C80.487 29.8281 80.0638 30.3978 79.543 30.8535C79.0547 31.2767 78.306 31.4883 77.2969 31.4883C76.3529 31.4883 75.5716 31.1628 74.9531 30.5117C74.3672 29.8607 74.1068 29.0794 74.1719 28.168C74.2044 27.7448 74.3021 27.3542 74.4648 26.9961L79.8359 13.1289C81.3333 9.48307 82.8307 6.53711 84.3281 4.29102C85.793 2.07747 87.9414 0.954427 90.7734 0.921875C93.5729 0.954427 95.7051 2.07747 97.1699 4.29102C98.6673 6.47201 100.165 9.41797 101.662 13.1289L107.033 26.9961C107.196 27.3542 107.294 27.7448 107.326 28.168C107.391 29.0794 107.115 29.8607 106.496 30.5117C105.91 31.1628 105.145 31.4883 104.201 31.4883C103.127 31.4883 102.329 31.2767 101.809 30.8535C101.32 30.3978 100.913 29.8281 100.588 29.1445L99.6602 26.6055H89.8457C88.9342 26.6055 88.1693 26.2799 87.5508 25.6289C86.8997 25.0104 86.5742 24.2454 86.5742 23.334Z" fill="#8187C8"/>
<path d="M31.6914 7.66016L31.0027 6.93516L30.9841 6.95282L30.9664 6.97141L31.6914 7.66016ZM9.86523 8.63672V7.63672H9.83894L9.81268 7.6381L9.86523 8.63672ZM8.30273 9.07617L8.80661 9.93995L8.81679 9.93401L8.82683 9.92783L8.30273 9.07617ZM7.42383 9.90625L8.25588 10.461L8.26908 10.4412L8.28132 10.4207L7.42383 9.90625ZM7.42383 11.8105L6.56633 12.325L6.57858 12.3454L6.59178 12.3652L7.42383 11.8105ZM8.30273 12.6406L7.74803 13.4727L7.7872 13.4988L7.82863 13.5211L8.30273 12.6406ZM9.86523 13.0312L9.81268 14.0299L9.83894 14.0312H9.86523V13.0312ZM23.7324 13.0312L23.761 12.0317L23.7467 12.0312H23.7324V13.0312ZM29.3477 14.6426L28.7804 15.4661L28.7908 15.4733L28.8014 15.4802L29.3477 14.6426ZM32.5215 18.0605L31.6182 18.4896L31.6247 18.5033L31.6317 18.5169L32.5215 18.0605ZM32.5215 25.873L33.4113 26.3294L33.4159 26.3203L32.5215 25.873ZM29.3477 29.291L29.9024 30.1231L29.9087 30.1188L29.915 30.1145L29.3477 29.291ZM23.4395 30.7559V29.7559H23.3567L23.2751 29.7695L23.4395 30.7559ZM2.05273 29.877L1.32773 30.5657L1.3454 30.5843L1.36398 30.602L2.05273 29.877ZM2.10156 25.2383L2.79031 25.9633L2.8089 25.9456L2.82656 25.927L2.10156 25.2383ZM24.0254 24.2617L24.0779 23.2631L24.0517 23.2617H24.0254V24.2617ZM25.5391 23.9199L25.015 23.0683L24.9995 23.0778L24.9844 23.0879L25.5391 23.9199ZM26.4668 23.041L27.3243 23.5555L27.3349 23.5379L27.3447 23.5199L26.4668 23.041ZM26.4668 21.0391L25.5588 21.4581L25.5654 21.4723L25.5724 21.4863L26.4668 21.0391ZM25.5391 20.0137L24.9844 20.8457L24.9995 20.8558L25.015 20.8653L25.5391 20.0137ZM24.0254 19.5742L24.0779 18.5756L24.0517 18.5742H24.0254V19.5742ZM10.1582 19.5742L10.1296 20.5738L10.1439 20.5742H10.1582V19.5742ZM4.49414 18.0117L3.93941 18.8438L3.94787 18.8493L4.49414 18.0117ZM1.32031 14.6914L0.421323 15.1294L0.428142 15.1434L0.435394 15.1572L1.32031 14.6914ZM1.36914 7.07422L2.25411 7.53999L2.25896 7.53053L1.36914 7.07422ZM10.1582 2.14258V1.14258H10.1439L10.1296 1.14299L10.1582 2.14258ZM10.4512 2.14258V3.14258H10.5339L10.6156 3.12897L10.4512 2.14258ZM31.6914 3.07031L30.9664 3.75906L30.9841 3.77765L31.0027 3.79531L31.6914 3.07031ZM31.668 5.36523C31.668 6.00724 31.4516 6.50864 31.0027 6.93516L32.3802 8.38516C33.2333 7.57469 33.668 6.54615 33.668 5.36523H31.668ZM30.9664 6.97141C30.5399 7.42037 30.0385 7.63672 29.3965 7.63672V9.63672C30.5774 9.63672 31.6059 9.20203 32.4164 8.34891L30.9664 6.97141ZM29.3965 7.63672H9.86523V9.63672H29.3965V7.63672ZM9.81268 7.6381C9.0677 7.67731 8.37519 7.8574 7.77864 8.22451L8.82683 9.92783C9.07664 9.77411 9.42579 9.66123 9.91779 9.63534L9.81268 7.6381ZM7.79886 8.21239C7.29063 8.50886 6.86341 8.89663 6.56633 9.39175L8.28132 10.4207C8.37487 10.2648 8.53359 10.0992 8.80661 9.93995L7.79886 8.21239ZM6.59178 9.35155C6.29631 9.79475 6.13086 10.2948 6.13086 10.834H8.13086C8.13086 10.7221 8.16072 10.6037 8.25588 10.461L6.59178 9.35155ZM6.13086 10.834C6.13086 11.369 6.29348 11.8703 6.56633 12.325L8.28132 11.2961C8.16356 11.0998 8.13086 10.95 8.13086 10.834H6.13086ZM6.59178 12.3652C6.88033 12.7981 7.28218 13.1621 7.74803 13.4727L8.85743 11.8086C8.54204 11.5983 8.35795 11.409 8.25588 11.2558L6.59178 12.3652ZM7.82863 13.5211C8.41375 13.8362 9.08769 13.9917 9.81268 14.0299L9.91779 12.0326C9.4058 12.0057 9.03807 11.9008 8.77683 11.7602L7.82863 13.5211ZM9.86523 14.0312H23.7324V12.0312H9.86523V14.0312ZM23.7039 14.0308C25.8435 14.092 27.5135 14.5934 28.7804 15.4661L29.915 13.8191C28.2521 12.6736 26.1787 12.1007 23.761 12.0317L23.7039 14.0308ZM28.8014 15.4802C30.1813 16.3801 31.0958 17.3898 31.6182 18.4896L33.4248 17.6315C32.7102 16.1272 31.5088 14.8581 29.8939 13.805L28.8014 15.4802ZM31.6317 18.5169C32.2154 19.6552 32.498 20.8017 32.498 21.9668H34.498C34.498 20.4626 34.1296 19.005 33.4113 17.6042L31.6317 18.5169ZM32.498 21.9668C32.498 23.0961 32.217 24.246 31.6271 25.4258L33.4159 26.3203C34.1281 24.8959 34.498 23.4416 34.498 21.9668H32.498ZM31.6317 25.4167C31.0725 26.5071 30.142 27.5295 28.7804 28.4675L29.915 30.1145C31.483 29.0343 32.6684 27.7781 33.4113 26.3294L31.6317 25.4167ZM28.793 28.459C27.5345 29.2979 25.8712 29.7559 23.7324 29.7559V31.7559C26.151 31.7559 28.2311 31.2372 29.9024 30.1231L28.793 28.459ZM23.7324 29.7559H23.4395V31.7559H23.7324V29.7559ZM23.2751 29.7695C23.1333 29.7931 22.993 29.8047 22.8535 29.8047V31.8047C23.1047 31.8047 23.355 31.7837 23.6039 31.7423L23.2751 29.7695ZM22.8535 29.8047H4.39648V31.8047H22.8535V29.8047ZM4.39648 29.8047C3.73709 29.8047 3.20359 29.591 2.74148 29.152L1.36398 30.602C2.20396 31.3999 3.23296 31.8047 4.39648 31.8047V29.8047ZM2.77773 29.1882C2.33873 28.7261 2.125 28.1926 2.125 27.5332H0.125C0.125 28.6967 0.52976 29.7257 1.32773 30.5657L2.77773 29.1882ZM2.125 27.5332C2.125 26.8912 2.34135 26.3898 2.79031 25.9633L1.41281 24.5133C0.559692 25.3237 0.125 26.3523 0.125 27.5332H2.125ZM2.82656 25.927C3.25308 25.4781 3.75448 25.2617 4.39648 25.2617V23.2617C3.21557 23.2617 2.18703 23.6964 1.37656 24.5495L2.82656 25.927ZM4.39648 25.2617H24.0254V23.2617H4.39648V25.2617ZM23.9728 25.2603C24.738 25.3006 25.4743 25.165 26.0938 24.752L24.9844 23.0879C24.8226 23.1957 24.5498 23.2879 24.0779 23.2631L23.9728 25.2603ZM26.0632 24.7716C26.5822 24.4522 27.025 24.0544 27.3243 23.5555L25.6093 22.5265C25.518 22.6787 25.3423 22.8668 25.015 23.0683L26.0632 24.7716ZM27.3447 23.5199C27.6088 23.0356 27.7598 22.5143 27.7598 21.9668H25.7598C25.7598 22.1355 25.7154 22.3303 25.5889 22.5622L27.3447 23.5199ZM27.7598 21.9668C27.7598 21.4982 27.5735 21.0164 27.3612 20.5919L25.5724 21.4863C25.654 21.6495 25.7043 21.7744 25.7329 21.8651C25.7629 21.9599 25.7598 21.9882 25.7598 21.9668H27.7598ZM27.3748 20.62C27.0913 20.0059 26.6425 19.5185 26.0632 19.162L25.015 20.8653C25.282 21.0297 25.4516 21.2258 25.5588 21.4581L27.3748 20.62ZM26.0938 19.1816C25.5133 18.7947 24.8201 18.6147 24.0779 18.5756L23.9728 20.5728C24.4677 20.5989 24.7835 20.7118 24.9844 20.8457L26.0938 19.1816ZM24.0254 18.5742H10.1582V20.5742H24.0254V18.5742ZM10.1868 18.5746C8.0423 18.5134 6.34633 18.0258 5.04041 17.1741L3.94787 18.8493C5.63675 19.9508 7.71681 20.5049 10.1296 20.5738L10.1868 18.5746ZM5.04884 17.1797C3.68757 16.2722 2.76087 15.2814 2.20523 14.2257L0.435394 15.1572C1.18184 16.5754 2.37102 17.7982 3.93944 18.8438L5.04884 17.1797ZM2.2193 14.2534C1.66156 13.1086 1.39258 11.9718 1.39258 10.834H-0.607422C-0.607422 12.3004 -0.257915 13.7352 0.421323 15.1294L2.2193 14.2534ZM1.39258 10.834C1.39258 9.74267 1.67082 8.64813 2.25406 7.53996L0.484222 6.60847C-0.234618 7.97427 -0.607422 9.38623 -0.607422 10.834H1.39258ZM2.25896 7.53053C2.81594 6.44441 3.7419 5.44098 5.09767 4.53713L3.98827 2.87303C2.41435 3.92231 1.22442 5.16496 0.479323 6.6179L2.25896 7.53053ZM5.09767 4.53713C6.3665 3.69124 8.04132 3.20347 10.1868 3.14217L10.1296 1.14299C7.71779 1.2119 5.64913 1.76579 3.98827 2.87303L5.09767 4.53713ZM10.1582 3.14258H10.4512V1.14258H10.1582V3.14258ZM10.6156 3.12897C10.7573 3.10535 10.8976 3.09375 11.0371 3.09375V1.09375C10.786 1.09375 10.5357 1.1147 10.2868 1.15618L10.6156 3.12897ZM11.0371 3.09375H29.3965V1.09375H11.0371V3.09375ZM29.3965 3.09375C30.0385 3.09375 30.5399 3.3101 30.9664 3.75906L32.4164 2.38156C31.6059 1.52844 30.5774 1.09375 29.3965 1.09375V3.09375ZM31.0027 3.79531C31.4516 4.22183 31.668 4.72323 31.668 5.36523H33.668C33.668 4.18432 33.2333 3.15578 32.3802 2.34531L31.0027 3.79531ZM50.8809 21.0391L51.588 21.7462L50.8809 21.0391ZM60.6953 20.0625V21.0625H62.1066L61.6388 19.731L60.6953 20.0625ZM59.4258 16.4492L60.3692 16.1177L60.3636 16.1016L60.3574 16.0857L59.4258 16.4492ZM57.8633 12.6895L56.9365 13.0652L56.9428 13.0805L56.9495 13.0956L57.8633 12.6895ZM56.1543 9.41797L55.2968 9.93246L55.309 9.95287L55.3222 9.97267L56.1543 9.41797ZM54.1523 7.85547L54.239 6.85923L54.1541 6.85185L54.0693 6.85892L54.1523 7.85547ZM52.0527 9.41797L51.2079 8.88292L52.0527 9.41797ZM50.3438 12.6895L49.4258 12.2925L49.4207 12.3048L50.3438 12.6895ZM48.8301 16.4492L47.8985 16.0857L47.8945 16.0958L47.8908 16.106L48.8301 16.4492ZM44.1914 29.1445L45.0943 29.5745L45.1145 29.532L45.1307 29.4877L44.1914 29.1445ZM42.9219 30.8535L43.5768 31.6092L43.5804 31.6061L42.9219 30.8535ZM38.332 30.5117L37.5887 31.1807L37.5978 31.1907L37.607 31.2005L38.332 30.5117ZM37.5508 28.168L36.5537 28.0913L36.5533 28.0967L37.5508 28.168ZM37.8438 26.9961L38.7541 27.4099L38.7659 27.3839L38.7762 27.3573L37.8438 26.9961ZM43.2148 13.1289L42.2898 12.749L42.286 12.7583L42.2823 12.7677L43.2148 13.1289ZM47.707 4.29102L48.5391 4.84572L48.541 4.84288L47.707 4.29102ZM54.1523 0.921875L54.164 -0.0780573L54.1524 -0.0781918L54.1409 -0.0780592L54.1523 0.921875ZM60.5488 4.29102L59.7149 4.84288L59.7196 4.84999L59.7244 4.85702L60.5488 4.29102ZM65.041 13.1289L65.9736 12.7677L65.9684 12.7547L65.041 13.1289ZM70.4121 26.9961L69.4796 27.3573L69.4899 27.3839L69.5017 27.4099L70.4121 26.9961ZM70.7051 28.168L71.7026 28.0967L71.7021 28.0913L70.7051 28.168ZM69.875 30.5117L69.15 29.823L69.1407 29.8327L69.1317 29.8428L69.875 30.5117ZM65.1875 30.8535L64.5052 31.5846L64.5303 31.608L64.5569 31.6296L65.1875 30.8535ZM63.9668 29.1445L63.0275 29.4877L63.0437 29.532L63.0639 29.5745L63.9668 29.1445ZM63.0391 26.6055L63.9783 26.2623L63.7383 25.6055H63.0391V26.6055ZM50.9297 25.6289L51.6547 24.9402L51.637 24.9216L51.6184 24.9039L50.9297 25.6289ZM50.9531 23.334C50.9531 22.6753 51.1656 22.1685 51.588 21.7462L50.1738 20.332C49.3591 21.1466 48.9531 22.1697 48.9531 23.334H50.9531ZM51.588 21.7462C52.0536 21.2805 52.5814 21.0625 53.2246 21.0625V19.0625C52.0449 19.0625 51.0102 19.4955 50.1738 20.332L51.588 21.7462ZM53.2246 21.0625H60.6953V19.0625H53.2246V21.0625ZM61.6388 19.731L60.3692 16.1177L58.4823 16.7807L59.7519 20.394L61.6388 19.731ZM60.3574 16.0857C59.8316 14.7383 59.3048 13.4708 58.7771 12.2833L56.9495 13.0956C57.4634 14.2519 57.9783 15.4908 58.4942 16.8128L60.3574 16.0857ZM58.79 12.3137C58.279 11.0532 57.6787 9.90177 56.9863 8.86327L55.3222 9.97267C55.932 10.8873 56.471 11.9168 56.9365 13.0652L58.79 12.3137ZM57.0118 8.90347C56.3492 7.79918 55.4462 6.9642 54.239 6.85923L54.0657 8.85171C54.3559 8.87694 54.7875 9.08364 55.2968 9.93246L57.0118 8.90347ZM54.0693 6.85892C52.8484 6.96066 51.9111 7.77256 51.2079 8.88292L52.8976 9.95302C53.4313 9.11025 53.8937 8.88048 54.2354 8.85201L54.0693 6.85892ZM51.2079 8.88292C50.5581 9.90898 49.9647 11.0465 49.4259 12.2925L51.2616 13.0864C51.7645 11.9235 52.3104 10.8801 52.8976 9.95302L51.2079 8.88292ZM49.4207 12.3048C48.9291 13.4845 48.4217 14.7449 47.8985 16.0857L49.7617 16.8128C50.2801 15.4843 50.7818 14.2381 51.2668 13.0741L49.4207 12.3048ZM47.8908 16.106L43.2521 28.8013L45.1307 29.4877L49.7693 16.7924L47.8908 16.106ZM43.2885 28.7146C43.0161 29.2868 42.6723 29.7431 42.2634 30.1009L43.5804 31.6061C44.2131 31.0525 44.7157 30.3695 45.0943 29.5745L43.2885 28.7146ZM42.2669 30.0978C42.0386 30.2958 41.573 30.4883 40.6758 30.4883V32.4883C41.7968 32.4883 42.8286 32.2576 43.5768 31.6092L42.2669 30.0978ZM40.6758 30.4883C39.9901 30.4883 39.4761 30.2641 39.057 29.823L37.607 31.2005C38.4249 32.0614 39.4734 32.4883 40.6758 32.4883V30.4883ZM39.0753 29.8428C38.6798 29.4033 38.5016 28.8928 38.5482 28.2392L36.5533 28.0967C36.4698 29.2661 36.8124 30.3181 37.5887 31.1807L39.0753 29.8428ZM38.5478 28.2447C38.5721 27.9288 38.6434 27.6534 38.7541 27.4099L36.9334 26.5823C36.7185 27.0549 36.5945 27.5608 36.5537 28.0913L38.5478 28.2447ZM38.7762 27.3573L44.1473 13.4901L42.2823 12.7677L36.9113 26.6349L38.7762 27.3573ZM44.1399 13.5088C45.6225 9.89898 47.0909 7.01797 48.5391 4.84572L46.875 3.73632C45.3284 6.05625 43.802 9.06717 42.2898 12.749L44.1399 13.5088ZM48.541 4.84288C49.8088 2.92705 51.6369 1.95085 54.1638 1.92181L54.1409 -0.0780592C51.0037 -0.0419998 48.535 1.2279 46.8731 3.73915L48.541 4.84288ZM54.1407 1.92181C56.6304 1.95076 58.4446 2.92327 59.7149 4.84288L61.3828 3.73915C59.7234 1.23168 57.2733 -0.0419025 54.164 -0.0780573L54.1407 1.92181ZM59.7244 4.85702C61.1654 6.95584 62.6311 9.82904 64.1137 13.5031L65.9684 12.7547C64.4561 9.00689 62.927 5.98818 61.3732 3.72501L59.7244 4.85702ZM64.1085 13.4901L69.4796 27.3573L71.3446 26.6349L65.9735 12.7677L64.1085 13.4901ZM69.5017 27.4099C69.6124 27.6534 69.6837 27.9288 69.708 28.2447L71.7021 28.0913C71.6613 27.5608 71.5373 27.0549 71.3225 26.5823L69.5017 27.4099ZM69.7076 28.2392C69.7531 28.8759 69.5711 29.3798 69.15 29.823L70.6 31.2005C71.4159 30.3416 71.7873 29.2829 71.7025 28.0967L69.7076 28.2392ZM69.1317 29.8428C68.7514 30.2653 68.2654 30.4883 67.5801 30.4883V32.4883C68.7828 32.4883 69.8267 32.0602 70.6183 31.1807L69.1317 29.8428ZM67.5801 30.4883C66.6066 30.4883 66.0813 30.2912 65.8181 30.0774L64.5569 31.6296C65.3354 32.2622 66.4052 32.4883 67.5801 32.4883V30.4883ZM65.8698 30.1225C65.4847 29.763 65.1484 29.2999 64.8697 28.7146L63.0639 29.5745C63.4363 30.3564 63.9137 31.0325 64.5052 31.5846L65.8698 30.1225ZM64.9061 28.8013L63.9783 26.2623L62.0998 26.9487L63.0275 29.4877L64.9061 28.8013ZM63.0391 25.6055H53.2246V27.6055H63.0391V25.6055ZM53.2246 25.6055C52.5826 25.6055 52.0812 25.3891 51.6547 24.9402L50.2047 26.3177C51.0152 27.1708 52.0437 27.6055 53.2246 27.6055V25.6055ZM51.6184 24.9039C51.1695 24.4774 50.9531 23.976 50.9531 23.334H48.9531C48.9531 24.5149 49.3878 25.5434 50.2409 26.3539L51.6184 24.9039ZM87.502 21.0391L88.2091 21.7462L87.502 21.0391ZM97.3164 20.0625V21.0625H98.7277L98.2599 19.731L97.3164 20.0625ZM96.0469 16.4492L96.9903 16.1177L96.9847 16.1016L96.9785 16.0857L96.0469 16.4492ZM94.4844 12.6895L93.5576 13.0652L93.5639 13.0805L93.5706 13.0956L94.4844 12.6895ZM92.7754 9.41797L91.9179 9.93246L91.9301 9.95287L91.9433 9.97267L92.7754 9.41797ZM90.7734 7.85547L90.8601 6.85923L90.7752 6.85185L90.6904 6.85892L90.7734 7.85547ZM88.6738 9.41797L87.829 8.88292L88.6738 9.41797ZM86.9648 12.6895L86.0469 12.2925L86.0418 12.3048L86.9648 12.6895ZM85.4512 16.4492L84.5196 16.0857L84.5156 16.0958L84.5119 16.106L85.4512 16.4492ZM80.8125 29.1445L81.7154 29.5745L81.7356 29.532L81.7518 29.4877L80.8125 29.1445ZM79.543 30.8535L80.1979 31.6092L80.2015 31.6061L79.543 30.8535ZM74.9531 30.5117L74.2098 31.1807L74.2188 31.1907L74.2281 31.2005L74.9531 30.5117ZM74.1719 28.168L73.1748 28.0913L73.1744 28.0967L74.1719 28.168ZM74.4648 26.9961L75.3752 27.4099L75.387 27.3839L75.3973 27.3573L74.4648 26.9961ZM79.8359 13.1289L78.9109 12.749L78.9071 12.7583L78.9034 12.7677L79.8359 13.1289ZM84.3281 4.29102L85.1602 4.84572L85.1621 4.84288L84.3281 4.29102ZM90.7734 0.921875L90.7851 -0.0780573L90.7735 -0.0781918L90.7619 -0.0780592L90.7734 0.921875ZM97.1699 4.29102L96.336 4.84288L96.3407 4.84999L96.3455 4.85702L97.1699 4.29102ZM101.662 13.1289L102.595 12.7677L102.589 12.7547L101.662 13.1289ZM107.033 26.9961L106.101 27.3573L106.111 27.3839L106.123 27.4099L107.033 26.9961ZM107.326 28.168L108.324 28.0967L108.323 28.0913L107.326 28.168ZM106.496 30.5117L105.771 29.823L105.762 29.8327L105.753 29.8428L106.496 30.5117ZM101.809 30.8535L101.126 31.5846L101.151 31.608L101.178 31.6296L101.809 30.8535ZM100.588 29.1445L99.6486 29.4877L99.6648 29.532L99.685 29.5745L100.588 29.1445ZM99.6602 26.6055L100.599 26.2623L100.359 25.6055H99.6602V26.6055ZM87.5508 25.6289L88.2758 24.9402L88.2581 24.9216L88.2395 24.9039L87.5508 25.6289ZM87.5742 23.334C87.5742 22.6753 87.7867 22.1685 88.2091 21.7462L86.7948 20.332C85.9802 21.1466 85.5742 22.1697 85.5742 23.334H87.5742ZM88.2091 21.7462C88.6747 21.2805 89.2025 21.0625 89.8457 21.0625V19.0625C88.666 19.0625 87.6313 19.4955 86.7948 20.332L88.2091 21.7462ZM89.8457 21.0625H97.3164V19.0625H89.8457V21.0625ZM98.2599 19.731L96.9903 16.1177L95.1034 16.7807L96.3729 20.394L98.2599 19.731ZM96.9785 16.0857C96.4527 14.7383 95.9259 13.4708 95.3982 12.2833L93.5706 13.0956C94.0845 14.2519 94.5994 15.4908 95.1153 16.8128L96.9785 16.0857ZM95.4111 12.3137C94.9001 11.0532 94.2998 9.90177 93.6074 8.86327L91.9433 9.97267C92.5531 10.8873 93.0921 11.9168 93.5576 13.0652L95.4111 12.3137ZM93.6329 8.90347C92.9703 7.79918 92.0673 6.9642 90.8601 6.85923L90.6868 8.85171C90.977 8.87694 91.4086 9.08364 91.9179 9.93246L93.6329 8.90347ZM90.6904 6.85892C89.4695 6.96066 88.5322 7.77256 87.829 8.88292L89.5186 9.95302C90.0524 9.11025 90.5148 8.88048 90.8565 8.85201L90.6904 6.85892ZM87.829 8.88292C87.1792 9.90898 86.5858 11.0465 86.047 12.2925L87.8827 13.0864C88.3855 11.9235 88.9315 10.8801 89.5186 9.95302L87.829 8.88292ZM86.0418 12.3048C85.5502 13.4845 85.0428 14.7449 84.5196 16.0857L86.3828 16.8128C86.9012 15.4843 87.4029 14.2381 87.8879 13.0741L86.0418 12.3048ZM84.5119 16.106L79.8732 28.8013L81.7518 29.4877L86.3904 16.7924L84.5119 16.106ZM79.9096 28.7146C79.6372 29.2868 79.2934 29.7431 78.8845 30.1009L80.2015 31.6061C80.8342 31.0525 81.3368 30.3695 81.7154 29.5745L79.9096 28.7146ZM78.888 30.0978C78.6596 30.2958 78.1941 30.4883 77.2969 30.4883V32.4883C78.4179 32.4883 79.4497 32.2576 80.1979 31.6092L78.888 30.0978ZM77.2969 30.4883C76.6112 30.4883 76.0972 30.2641 75.6781 29.823L74.2281 31.2005C75.046 32.0614 76.0945 32.4883 77.2969 32.4883V30.4883ZM75.6964 29.8428C75.3009 29.4033 75.1227 28.8928 75.1693 28.2392L73.1744 28.0967C73.0909 29.2661 73.4335 30.3181 74.2098 31.1807L75.6964 29.8428ZM75.1689 28.2447C75.1932 27.9288 75.2645 27.6534 75.3752 27.4099L73.5545 26.5823C73.3396 27.0549 73.2156 27.5608 73.1748 28.0913L75.1689 28.2447ZM75.3973 27.3573L80.7684 13.4901L78.9034 12.7677L73.5323 26.6349L75.3973 27.3573ZM80.761 13.5088C82.2436 9.89898 83.712 7.01797 85.1602 4.84572L83.4961 3.73632C81.9495 6.05625 80.4231 9.06717 78.9109 12.749L80.761 13.5088ZM85.1621 4.84288C86.4299 2.92705 88.258 1.95085 90.7849 1.92181L90.7619 -0.0780592C87.6248 -0.0419998 85.1561 1.2279 83.4942 3.73915L85.1621 4.84288ZM90.7618 1.92181C93.2515 1.95076 95.0657 2.92327 96.336 4.84288L98.0039 3.73915C96.3445 1.23168 93.8944 -0.0419025 90.7851 -0.0780573L90.7618 1.92181ZM96.3455 4.85702C97.7865 6.95584 99.2522 9.82904 100.735 13.5031L102.589 12.7547C101.077 9.00689 99.5481 5.98818 97.9943 3.72501L96.3455 4.85702ZM100.73 13.4901L106.101 27.3573L107.966 26.6349L102.595 12.7677L100.73 13.4901ZM106.123 27.4099C106.234 27.6534 106.305 27.9288 106.329 28.2447L108.323 28.0913C108.282 27.5608 108.158 27.0549 107.944 26.5823L106.123 27.4099ZM106.329 28.2392C106.374 28.8759 106.192 29.3798 105.771 29.823L107.221 31.2005C108.037 30.3416 108.408 29.2829 108.324 28.0967L106.329 28.2392ZM105.753 29.8428C105.372 30.2653 104.886 30.4883 104.201 30.4883V32.4883C105.404 32.4883 106.448 32.0602 107.239 31.1807L105.753 29.8428ZM104.201 30.4883C103.228 30.4883 102.702 30.2912 102.439 30.0774L101.178 31.6296C101.956 32.2622 103.026 32.4883 104.201 32.4883V30.4883ZM102.491 30.1225C102.106 29.763 101.769 29.2999 101.491 28.7146L99.685 29.5745C100.057 30.3564 100.535 31.0325 101.126 31.5846L102.491 30.1225ZM101.527 28.8013L100.599 26.2623L98.7209 26.9487L99.6486 29.4877L101.527 28.8013ZM99.6602 25.6055H89.8457V27.6055H99.6602V25.6055ZM89.8457 25.6055C89.2037 25.6055 88.7023 25.3891 88.2758 24.9402L86.8258 26.3177C87.6362 27.1708 88.6648 27.6055 89.8457 27.6055V25.6055ZM88.2395 24.9039C87.7906 24.4774 87.5742 23.976 87.5742 23.334H85.5742C85.5742 24.5149 86.0089 25.5434 86.862 26.3539L88.2395 24.9039Z" fill="#8187C8" mask="url(#path-1-outside-1_26_35)"/>
</svg>
