<svg width="130" height="38" viewBox="0 0 130 38" fill="none" xmlns="http://www.w3.org/2000/svg">
<mask id="path-1-outside-1_27_253" maskUnits="userSpaceOnUse" x="-1" y="-1" width="132" height="40" fill="black">
<rect fill="white" x="-1" y="-1" width="132" height="40"/>
<path d="M39.6016 6.23828C39.6016 7.33203 39.2109 8.25 38.4297 8.99219C37.6875 9.77344 36.7695 10.1641 35.6758 10.1641H12.2383C11.4961 10.2031 10.8711 10.3789 10.3633 10.6914C9.89453 10.9648 9.54297 11.2969 9.30859 11.6875C9.07422 12.0391 8.95703 12.4102 8.95703 12.8008C8.95703 13.1914 9.07422 13.582 9.30859 13.9727C9.54297 14.3242 9.89453 14.6562 10.3633 14.9688C10.8711 15.2422 11.4961 15.3984 12.2383 15.4375H28.8789C31.6133 15.5156 33.8594 16.1602 35.6172 17.3711C37.4141 18.543 38.6836 19.9102 39.4258 21.4727C40.207 22.9961 40.5977 24.5586 40.5977 26.1602C40.5977 27.7227 40.207 29.2852 39.4258 30.8477C38.6445 32.3711 37.375 33.7383 35.6172 34.9492C33.8594 36.1211 31.6133 36.707 28.8789 36.707H28.5273C28.293 36.7461 28.0586 36.7656 27.8242 36.7656H5.67578C4.58203 36.7656 3.64453 36.3945 2.86328 35.6523C2.12109 34.8711 1.75 33.9336 1.75 32.8398C1.75 31.7461 2.14062 30.8281 2.92188 30.0859C3.66406 29.3047 4.58203 28.9141 5.67578 28.9141H29.2305C29.9727 28.9531 30.5781 28.8164 31.0469 28.5039C31.5547 28.1914 31.9258 27.8398 32.1602 27.4492C32.3945 27.0195 32.5117 26.5898 32.5117 26.1602C32.5117 25.8867 32.3945 25.5156 32.1602 25.0469C31.9258 24.5391 31.5547 24.1289 31.0469 23.8164C30.5781 23.5039 29.9727 23.3281 29.2305 23.2891H12.5898C9.85547 23.2109 7.58984 22.5859 5.79297 21.4141C4.03516 20.2422 2.76562 18.9141 1.98438 17.4297C1.24219 15.9062 0.871094 14.3633 0.871094 12.8008C0.871094 11.2773 1.26172 9.77344 2.04297 8.28906C2.82422 6.76562 4.09375 5.41797 5.85156 4.24609C7.60938 3.07422 9.85547 2.44922 12.5898 2.37109H12.9414C13.1758 2.33203 13.4102 2.3125 13.6445 2.3125H35.6758C36.7695 2.3125 37.6875 2.70312 38.4297 3.48438C39.2109 4.22656 39.6016 5.14453 39.6016 6.23828ZM60.3438 27.8008C60.3438 26.707 60.7148 25.7891 61.457 25.0469C62.2383 24.2656 63.1758 23.875 64.2695 23.875H73.2344L71.7109 19.5391C71.0859 17.9375 70.4609 16.4336 69.8359 15.0273C69.25 13.582 68.5664 12.2734 67.7852 11.1016C67.082 9.92969 66.2812 9.30469 65.3828 9.22656C64.4453 9.30469 63.6055 9.92969 62.8633 11.1016C62.1211 12.2734 61.4375 13.582 60.8125 15.0273C60.2266 16.4336 59.6211 17.9375 58.9961 19.5391L53.4297 34.7734C53.0391 35.5938 52.5312 36.2773 51.9062 36.8242C51.3203 37.332 50.4219 37.5859 49.2109 37.5859C48.0781 37.5859 47.1406 37.1953 46.3984 36.4141C45.6953 35.6328 45.3828 34.6953 45.4609 33.6016C45.5 33.0938 45.6172 32.625 45.8125 32.1953L52.2578 15.5547C54.0547 11.1797 55.8516 7.64453 57.6484 4.94922C59.4062 2.29297 61.9844 0.945312 65.3828 0.90625C68.7422 0.945312 71.3008 2.29297 73.0586 4.94922C74.8555 7.56641 76.6523 11.1016 78.4492 15.5547L84.8945 32.1953C85.0898 32.625 85.207 33.0938 85.2461 33.6016C85.3242 34.6953 84.9922 35.6328 84.25 36.4141C83.5469 37.1953 82.6289 37.5859 81.4961 37.5859C80.207 37.5859 79.25 37.332 78.625 36.8242C78.0391 36.2773 77.5508 35.5938 77.1602 34.7734L76.0469 31.7266H64.2695C63.1758 31.7266 62.2578 31.3359 61.5156 30.5547C60.7344 29.8125 60.3438 28.8945 60.3438 27.8008ZM104.289 27.8008C104.289 26.707 104.66 25.7891 105.402 25.0469C106.184 24.2656 107.121 23.875 108.215 23.875H117.18L115.656 19.5391C115.031 17.9375 114.406 16.4336 113.781 15.0273C113.195 13.582 112.512 12.2734 111.73 11.1016C111.027 9.92969 110.227 9.30469 109.328 9.22656C108.391 9.30469 107.551 9.92969 106.809 11.1016C106.066 12.2734 105.383 13.582 104.758 15.0273C104.172 16.4336 103.566 17.9375 102.941 19.5391L97.375 34.7734C96.9844 35.5938 96.4766 36.2773 95.8516 36.8242C95.2656 37.332 94.3672 37.5859 93.1562 37.5859C92.0234 37.5859 91.0859 37.1953 90.3438 36.4141C89.6406 35.6328 89.3281 34.6953 89.4062 33.6016C89.4453 33.0938 89.5625 32.625 89.7578 32.1953L96.2031 15.5547C98 11.1797 99.7969 7.64453 101.594 4.94922C103.352 2.29297 105.93 0.945312 109.328 0.90625C112.688 0.945312 115.246 2.29297 117.004 4.94922C118.801 7.56641 120.598 11.1016 122.395 15.5547L128.84 32.1953C129.035 32.625 129.152 33.0938 129.191 33.6016C129.27 34.6953 128.938 35.6328 128.195 36.4141C127.492 37.1953 126.574 37.5859 125.441 37.5859C124.152 37.5859 123.195 37.332 122.57 36.8242C121.984 36.2773 121.496 35.5938 121.105 34.7734L119.992 31.7266H108.215C107.121 31.7266 106.203 31.3359 105.461 30.5547C104.68 29.8125 104.289 28.8945 104.289 27.8008Z"/>
</mask>
<path d="M39.6016 6.23828C39.6016 7.33203 39.2109 8.25 38.4297 8.99219C37.6875 9.77344 36.7695 10.1641 35.6758 10.1641H12.2383C11.4961 10.2031 10.8711 10.3789 10.3633 10.6914C9.89453 10.9648 9.54297 11.2969 9.30859 11.6875C9.07422 12.0391 8.95703 12.4102 8.95703 12.8008C8.95703 13.1914 9.07422 13.582 9.30859 13.9727C9.54297 14.3242 9.89453 14.6562 10.3633 14.9688C10.8711 15.2422 11.4961 15.3984 12.2383 15.4375H28.8789C31.6133 15.5156 33.8594 16.1602 35.6172 17.3711C37.4141 18.543 38.6836 19.9102 39.4258 21.4727C40.207 22.9961 40.5977 24.5586 40.5977 26.1602C40.5977 27.7227 40.207 29.2852 39.4258 30.8477C38.6445 32.3711 37.375 33.7383 35.6172 34.9492C33.8594 36.1211 31.6133 36.707 28.8789 36.707H28.5273C28.293 36.7461 28.0586 36.7656 27.8242 36.7656H5.67578C4.58203 36.7656 3.64453 36.3945 2.86328 35.6523C2.12109 34.8711 1.75 33.9336 1.75 32.8398C1.75 31.7461 2.14062 30.8281 2.92188 30.0859C3.66406 29.3047 4.58203 28.9141 5.67578 28.9141H29.2305C29.9727 28.9531 30.5781 28.8164 31.0469 28.5039C31.5547 28.1914 31.9258 27.8398 32.1602 27.4492C32.3945 27.0195 32.5117 26.5898 32.5117 26.1602C32.5117 25.8867 32.3945 25.5156 32.1602 25.0469C31.9258 24.5391 31.5547 24.1289 31.0469 23.8164C30.5781 23.5039 29.9727 23.3281 29.2305 23.2891H12.5898C9.85547 23.2109 7.58984 22.5859 5.79297 21.4141C4.03516 20.2422 2.76562 18.9141 1.98438 17.4297C1.24219 15.9062 0.871094 14.3633 0.871094 12.8008C0.871094 11.2773 1.26172 9.77344 2.04297 8.28906C2.82422 6.76562 4.09375 5.41797 5.85156 4.24609C7.60938 3.07422 9.85547 2.44922 12.5898 2.37109H12.9414C13.1758 2.33203 13.4102 2.3125 13.6445 2.3125H35.6758C36.7695 2.3125 37.6875 2.70312 38.4297 3.48438C39.2109 4.22656 39.6016 5.14453 39.6016 6.23828ZM60.3438 27.8008C60.3438 26.707 60.7148 25.7891 61.457 25.0469C62.2383 24.2656 63.1758 23.875 64.2695 23.875H73.2344L71.7109 19.5391C71.0859 17.9375 70.4609 16.4336 69.8359 15.0273C69.25 13.582 68.5664 12.2734 67.7852 11.1016C67.082 9.92969 66.2812 9.30469 65.3828 9.22656C64.4453 9.30469 63.6055 9.92969 62.8633 11.1016C62.1211 12.2734 61.4375 13.582 60.8125 15.0273C60.2266 16.4336 59.6211 17.9375 58.9961 19.5391L53.4297 34.7734C53.0391 35.5938 52.5312 36.2773 51.9062 36.8242C51.3203 37.332 50.4219 37.5859 49.2109 37.5859C48.0781 37.5859 47.1406 37.1953 46.3984 36.4141C45.6953 35.6328 45.3828 34.6953 45.4609 33.6016C45.5 33.0938 45.6172 32.625 45.8125 32.1953L52.2578 15.5547C54.0547 11.1797 55.8516 7.64453 57.6484 4.94922C59.4062 2.29297 61.9844 0.945312 65.3828 0.90625C68.7422 0.945312 71.3008 2.29297 73.0586 4.94922C74.8555 7.56641 76.6523 11.1016 78.4492 15.5547L84.8945 32.1953C85.0898 32.625 85.207 33.0938 85.2461 33.6016C85.3242 34.6953 84.9922 35.6328 84.25 36.4141C83.5469 37.1953 82.6289 37.5859 81.4961 37.5859C80.207 37.5859 79.25 37.332 78.625 36.8242C78.0391 36.2773 77.5508 35.5938 77.1602 34.7734L76.0469 31.7266H64.2695C63.1758 31.7266 62.2578 31.3359 61.5156 30.5547C60.7344 29.8125 60.3438 28.8945 60.3438 27.8008ZM104.289 27.8008C104.289 26.707 104.66 25.7891 105.402 25.0469C106.184 24.2656 107.121 23.875 108.215 23.875H117.18L115.656 19.5391C115.031 17.9375 114.406 16.4336 113.781 15.0273C113.195 13.582 112.512 12.2734 111.73 11.1016C111.027 9.92969 110.227 9.30469 109.328 9.22656C108.391 9.30469 107.551 9.92969 106.809 11.1016C106.066 12.2734 105.383 13.582 104.758 15.0273C104.172 16.4336 103.566 17.9375 102.941 19.5391L97.375 34.7734C96.9844 35.5938 96.4766 36.2773 95.8516 36.8242C95.2656 37.332 94.3672 37.5859 93.1562 37.5859C92.0234 37.5859 91.0859 37.1953 90.3438 36.4141C89.6406 35.6328 89.3281 34.6953 89.4062 33.6016C89.4453 33.0938 89.5625 32.625 89.7578 32.1953L96.2031 15.5547C98 11.1797 99.7969 7.64453 101.594 4.94922C103.352 2.29297 105.93 0.945312 109.328 0.90625C112.688 0.945312 115.246 2.29297 117.004 4.94922C118.801 7.56641 120.598 11.1016 122.395 15.5547L128.84 32.1953C129.035 32.625 129.152 33.0938 129.191 33.6016C129.27 34.6953 128.938 35.6328 128.195 36.4141C127.492 37.1953 126.574 37.5859 125.441 37.5859C124.152 37.5859 123.195 37.332 122.57 36.8242C121.984 36.2773 121.496 35.5938 121.105 34.7734L119.992 31.7266H108.215C107.121 31.7266 106.203 31.3359 105.461 30.5547C104.68 29.8125 104.289 28.8945 104.289 27.8008Z" fill="white"/>
<path d="M38.4297 8.99219L37.7409 8.26719L37.7223 8.28485L37.7047 8.30344L38.4297 8.99219ZM12.2383 10.1641V9.16406H12.212L12.1857 9.16545L12.2383 10.1641ZM10.3633 10.6914L10.8672 11.5552L10.8773 11.5492L10.8874 11.5431L10.3633 10.6914ZM9.30859 11.6875L10.1406 12.2422L10.1538 12.2224L10.1661 12.202L9.30859 11.6875ZM9.30859 13.9727L8.4511 14.4872L8.46334 14.5076L8.47654 14.5274L9.30859 13.9727ZM10.3633 14.9688L9.80858 15.8008L9.84774 15.8269L9.88918 15.8492L10.3633 14.9688ZM12.2383 15.4375L12.1857 16.4361L12.212 16.4375H12.2383V15.4375ZM28.8789 15.4375L28.9075 14.4379L28.8932 14.4375H28.8789V15.4375ZM35.6172 17.3711L35.0499 18.1946L35.0603 18.2018L35.0709 18.2087L35.6172 17.3711ZM39.4258 21.4727L38.5225 21.9017L38.529 21.9154L38.536 21.929L39.4258 21.4727ZM39.4258 30.8477L40.3156 31.304L40.3202 31.2949L39.4258 30.8477ZM35.6172 34.9492L36.1719 35.7813L36.1782 35.777L36.1845 35.7727L35.6172 34.9492ZM28.5273 36.707V35.707H28.4446L28.3629 35.7206L28.5273 36.707ZM2.86328 35.6523L2.13828 36.3411L2.15594 36.3597L2.17453 36.3773L2.86328 35.6523ZM2.92188 30.0859L3.61062 30.8109L3.62921 30.7933L3.64687 30.7747L2.92188 30.0859ZM29.2305 28.9141L29.283 27.9154L29.2568 27.9141H29.2305V28.9141ZM31.0469 28.5039L30.5228 27.6522L30.5073 27.6618L30.4922 27.6719L31.0469 28.5039ZM32.1602 27.4492L33.0177 27.9637L33.0282 27.9461L33.0381 27.9281L32.1602 27.4492ZM32.1602 25.0469L31.2522 25.4659L31.2587 25.4801L31.2657 25.4941L32.1602 25.0469ZM31.0469 23.8164L30.4922 24.6485L30.5073 24.6585L30.5228 24.6681L31.0469 23.8164ZM29.2305 23.2891L29.283 22.2904L29.2568 22.2891H29.2305V23.2891ZM12.5898 23.2891L12.5613 24.2887L12.5756 24.2891H12.5898V23.2891ZM5.79297 21.4141L5.23824 22.2462L5.2467 22.2517L5.79297 21.4141ZM1.98438 17.4297L1.08539 17.8677L1.0922 17.8817L1.09946 17.8954L1.98438 17.4297ZM2.04297 8.28906L2.92794 8.75484L2.93279 8.74538L2.04297 8.28906ZM12.5898 2.37109V1.37109H12.5756L12.5613 1.3715L12.5898 2.37109ZM12.9414 2.37109V3.37109H13.0242L13.1058 3.35749L12.9414 2.37109ZM38.4297 3.48438L37.7047 4.17312L37.7223 4.19171L37.7409 4.20938L38.4297 3.48438ZM38.6016 6.23828C38.6016 7.06257 38.3201 7.71698 37.7409 8.26719L39.1184 9.71719C40.1018 8.78302 40.6016 7.60149 40.6016 6.23828H38.6016ZM37.7047 8.30344C37.1545 8.88261 36.5001 9.16406 35.6758 9.16406V11.1641C37.039 11.1641 38.2205 10.6643 39.1547 9.68094L37.7047 8.30344ZM35.6758 9.16406H12.2383V11.1641H35.6758V9.16406ZM12.1857 9.16545C11.317 9.21116 10.5204 9.42056 9.83918 9.83975L10.8874 11.5431C11.2218 11.3373 11.6751 11.1951 12.2908 11.1627L12.1857 9.16545ZM9.85941 9.82763C9.27305 10.1697 8.78724 10.6128 8.4511 11.173L10.1661 12.202C10.2987 11.981 10.516 11.76 10.8672 11.5552L9.85941 9.82763ZM8.47654 11.1328C8.14202 11.6346 7.95703 12.1965 7.95703 12.8008H9.95703C9.95703 12.6238 10.0064 12.4435 10.1406 12.2422L8.47654 11.1328ZM7.95703 12.8008C7.95703 13.4009 8.13918 13.9673 8.4511 14.4872L10.1661 13.4582C10.0093 13.1968 9.95703 12.9819 9.95703 12.8008H7.95703ZM8.47654 14.5274C8.80416 15.0188 9.2646 15.4381 9.80858 15.8008L10.918 14.1367C10.5245 13.8744 10.2818 13.6297 10.1406 13.418L8.47654 14.5274ZM9.88918 15.8492C10.5589 16.2099 11.337 16.3915 12.1857 16.4361L12.2908 14.4389C11.6551 14.4054 11.1833 14.2745 10.8374 14.0883L9.88918 15.8492ZM12.2383 16.4375H28.8789V14.4375H12.2383V16.4375ZM28.8503 16.4371C31.4457 16.5112 33.4901 17.1201 35.0499 18.1946L36.1845 16.5476C34.2287 15.2003 31.7809 14.52 28.9075 14.4379L28.8503 16.4371ZM35.0709 18.2087C36.7503 19.304 37.8764 20.5415 38.5225 21.9017L40.3291 21.0436C39.4908 19.2789 38.0778 17.782 36.1635 16.5335L35.0709 18.2087ZM38.536 21.929C39.2499 23.3212 39.5977 24.7281 39.5977 26.1602H41.5977C41.5977 24.389 41.1641 22.671 40.3156 21.0163L38.536 21.929ZM39.5977 26.1602C39.5977 27.5499 39.2515 28.9602 38.5314 30.4004L40.3202 31.2949C41.1626 29.6101 41.5977 27.8954 41.5977 26.1602H39.5977ZM38.536 30.3913C37.8466 31.7356 36.7045 32.9858 35.0499 34.1257L36.1845 35.7727C38.0455 34.4907 39.4425 33.0066 40.3156 31.304L38.536 30.3913ZM35.0625 34.1172C33.511 35.1515 31.4734 35.707 28.8789 35.707V37.707C31.7532 37.707 34.2077 37.0907 36.1719 35.7813L35.0625 34.1172ZM28.8789 35.707H28.5273V37.707H28.8789V35.707ZM28.3629 35.7206C28.1821 35.7508 28.0028 35.7656 27.8242 35.7656V37.7656C28.1144 37.7656 28.4038 37.7414 28.6917 37.6934L28.3629 35.7206ZM27.8242 35.7656H5.67578V37.7656H27.8242V35.7656ZM5.67578 35.7656C4.83409 35.7656 4.14435 35.49 3.55203 34.9273L2.17453 36.3773C3.14471 37.299 4.32997 37.7656 5.67578 37.7656V35.7656ZM3.58828 34.9636C3.02558 34.3713 2.75 33.6815 2.75 32.8398H0.75C0.75 34.1857 1.21661 35.3709 2.13828 36.3411L3.58828 34.9636ZM2.75 32.8398C2.75 32.0156 3.03145 31.3611 3.61062 30.8109L2.23313 29.3609C1.2498 30.2951 0.75 31.4766 0.75 32.8398H2.75ZM3.64687 30.7747C4.19709 30.1955 4.85149 29.9141 5.67578 29.9141V27.9141C4.31257 27.9141 3.13104 28.4139 2.19688 29.3972L3.64687 30.7747ZM5.67578 29.9141H29.2305V27.9141H5.67578V29.9141ZM29.1779 29.9127C30.0668 29.9595 30.904 29.801 31.6016 29.336L30.4922 27.6719C30.2523 27.8318 29.8785 27.9468 29.283 27.9154L29.1779 29.9127ZM31.571 29.3556C32.1746 28.9841 32.6793 28.5277 33.0177 27.9637L31.3027 26.9347C31.1723 27.152 30.9347 27.3987 30.5228 27.6522L31.571 29.3556ZM33.0381 27.9281C33.3413 27.3722 33.5117 26.7792 33.5117 26.1602H31.5117C31.5117 26.4005 31.4478 26.6669 31.2823 26.9704L33.0381 27.9281ZM33.5117 26.1602C33.5117 25.646 33.3059 25.1024 33.0546 24.5997L31.2657 25.4941C31.3669 25.6964 31.4319 25.8563 31.4702 25.9779C31.4892 26.0378 31.5 26.0833 31.5059 26.1157C31.5118 26.1484 31.5117 26.1622 31.5117 26.1602H33.5117ZM33.0681 24.6278C32.7456 23.9291 32.2349 23.3733 31.571 22.9647L30.5228 24.6681C30.8745 24.8845 31.1059 25.149 31.2522 25.4659L33.0681 24.6278ZM31.6016 22.9844C30.943 22.5453 30.1488 22.336 29.283 22.2904L29.1779 24.2877C29.7965 24.3202 30.2132 24.4625 30.4922 24.6485L31.6016 22.9844ZM29.2305 22.2891H12.5898V24.2891H29.2305V22.2891ZM12.6184 22.2895C10.0182 22.2152 7.94463 21.6235 6.33924 20.5765L5.2467 22.2517C7.23505 23.5484 9.69272 24.2067 12.5613 24.2887L12.6184 22.2895ZM6.34767 20.582C4.69343 19.4792 3.55514 18.267 2.86929 16.9639L1.09946 17.8954C1.97611 19.5611 3.37688 21.0052 5.23827 22.2461L6.34767 20.582ZM2.88336 16.9917C2.20193 15.593 1.87109 14.199 1.87109 12.8008H-0.128906C-0.128906 14.5276 0.282449 16.2195 1.08539 17.8677L2.88336 16.9917ZM1.87109 12.8008C1.87109 11.4556 2.21444 10.1104 2.92789 8.75481L1.15805 7.82332C0.309002 9.43651 -0.128906 11.0991 -0.128906 12.8008H1.87109ZM2.93279 8.74538C3.61998 7.40535 4.75752 6.1773 6.40626 5.07814L5.29686 3.41404C3.42998 4.65863 2.02846 6.1259 1.15315 7.83275L2.93279 8.74538ZM6.40626 5.07814C7.96806 4.03695 10.0172 3.44501 12.6184 3.37069L12.5613 1.3715C9.6937 1.45343 7.25069 2.11149 5.29686 3.41404L6.40626 5.07814ZM12.5898 3.37109H12.9414V1.37109H12.5898V3.37109ZM13.1058 3.35749C13.2866 3.32735 13.466 3.3125 13.6445 3.3125V1.3125C13.3543 1.3125 13.065 1.33671 12.777 1.3847L13.1058 3.35749ZM13.6445 3.3125H35.6758V1.3125H13.6445V3.3125ZM35.6758 3.3125C36.5001 3.3125 37.1545 3.59395 37.7047 4.17312L39.1547 2.79563C38.2205 1.8123 37.039 1.3125 35.6758 1.3125V3.3125ZM37.7409 4.20938C38.3201 4.75959 38.6016 5.41399 38.6016 6.23828H40.6016C40.6016 4.87507 40.1018 3.69354 39.1184 2.75937L37.7409 4.20938ZM73.2344 23.875V24.875H74.6457L74.1778 23.5435L73.2344 23.875ZM71.7109 19.5391L72.6544 19.2076L72.6487 19.1914L72.6425 19.1755L71.7109 19.5391ZM69.8359 15.0273L68.9092 15.403L68.9154 15.4184L68.9221 15.4335L69.8359 15.0273ZM67.7852 11.1016L66.9277 11.6161L66.9399 11.6365L66.9531 11.6563L67.7852 11.1016ZM65.3828 9.22656L65.4694 8.23032L65.3846 8.22295L65.2998 8.23002L65.3828 9.22656ZM60.8125 15.0273L59.8946 14.6304L59.8894 14.6427L60.8125 15.0273ZM58.9961 19.5391L58.0645 19.1755L58.0606 19.1857L58.0568 19.1959L58.9961 19.5391ZM53.4297 34.7734L54.3325 35.2034L54.3528 35.1609L54.369 35.1166L53.4297 34.7734ZM51.9062 36.8242L52.5612 37.5799L52.5648 37.5768L51.9062 36.8242ZM46.3984 36.4141L45.6551 37.083L45.6642 37.093L45.6734 37.1028L46.3984 36.4141ZM45.4609 33.6016L44.4639 33.5249L44.4635 33.5303L45.4609 33.6016ZM45.8125 32.1953L46.7229 32.6091L46.7347 32.5831L46.745 32.5565L45.8125 32.1953ZM52.2578 15.5547L51.3328 15.1748L51.329 15.1841L51.3253 15.1935L52.2578 15.5547ZM57.6484 4.94922L58.4805 5.50392L58.4824 5.50109L57.6484 4.94922ZM65.3828 0.90625L65.3944 -0.0936823L65.3829 -0.0938168L65.3713 -0.0936842L65.3828 0.90625ZM73.0586 4.94922L72.2247 5.50109L72.2294 5.5082L72.2342 5.51522L73.0586 4.94922ZM78.4492 15.5547L79.3818 15.1935L79.3766 15.1805L78.4492 15.5547ZM84.8945 32.1953L83.962 32.5565L83.9724 32.5831L83.9842 32.6091L84.8945 32.1953ZM85.2461 33.6016L86.2436 33.5303L86.2431 33.5249L85.2461 33.6016ZM84.25 36.4141L83.525 35.7253L83.5157 35.7351L83.5067 35.7451L84.25 36.4141ZM78.625 36.8242L77.9427 37.5553L77.9678 37.5787L77.9944 37.6003L78.625 36.8242ZM77.1602 34.7734L76.2209 35.1166L76.2371 35.1609L76.2573 35.2034L77.1602 34.7734ZM76.0469 31.7266L76.9861 31.3834L76.7462 30.7266H76.0469V31.7266ZM61.5156 30.5547L62.2406 29.8659L62.223 29.8473L62.2044 29.8297L61.5156 30.5547ZM61.3438 27.8008C61.3438 26.9598 61.6181 26.3 62.1641 25.754L60.7499 24.3398C59.8116 25.2781 59.3438 26.4543 59.3438 27.8008H61.3438ZM62.1641 25.754C62.76 25.1581 63.444 24.875 64.2695 24.875V22.875C62.9076 22.875 61.7166 23.3731 60.7499 24.3398L62.1641 25.754ZM64.2695 24.875H73.2344V22.875H64.2695V24.875ZM74.1778 23.5435L72.6544 19.2076L70.7675 19.8705L72.2909 24.2065L74.1778 23.5435ZM72.6425 19.1755C72.0126 17.5613 71.3817 16.043 70.7497 14.6212L68.9221 15.4335C69.5402 16.8242 70.1593 18.3137 70.7794 19.9026L72.6425 19.1755ZM70.7627 14.6516C70.154 13.1502 69.4398 11.7807 68.6172 10.5469L66.9531 11.6563C67.6931 12.7662 68.346 14.0139 68.9092 15.403L70.7627 14.6516ZM68.6426 10.5871C67.8629 9.28746 66.8264 8.34832 65.4694 8.23032L65.2962 10.2228C65.7361 10.2611 66.3012 10.5719 66.9277 11.6161L68.6426 10.5871ZM65.2998 8.23002C63.9227 8.34478 62.8454 9.26084 62.0185 10.5665L63.7081 11.6366C64.3656 10.5985 64.968 10.2646 65.4659 10.2231L65.2998 8.23002ZM62.0185 10.5665C61.2449 11.7879 60.5376 13.1435 59.8946 14.6304L61.7304 15.4243C62.3374 14.0205 62.9973 12.759 63.7081 11.6366L62.0185 10.5665ZM59.8894 14.6427C59.3002 16.0568 58.6919 17.5678 58.0645 19.1755L59.9277 19.9026C60.5503 18.3072 61.1529 16.8104 61.7356 15.412L59.8894 14.6427ZM58.0568 19.1959L52.4904 34.4302L54.369 35.1166L59.9354 19.8823L58.0568 19.1959ZM52.5268 34.3435C52.1893 35.0524 51.7609 35.6227 51.2477 36.0716L52.5648 37.5768C53.3016 36.932 53.8889 36.1351 54.3325 35.2034L52.5268 34.3435ZM51.2513 36.0685C50.9253 36.3511 50.31 36.5859 49.2109 36.5859V38.5859C50.5337 38.5859 51.7154 38.313 52.5612 37.5799L51.2513 36.0685ZM49.2109 36.5859C48.3365 36.5859 47.6662 36.2967 47.1234 35.7253L45.6734 37.1028C46.615 38.0939 47.8198 38.5859 49.2109 38.5859V36.5859ZM47.1417 35.7451C46.629 35.1754 46.3987 34.5087 46.4584 33.6728L44.4635 33.5303C44.3669 34.8819 44.7616 36.0902 45.6551 37.083L47.1417 35.7451ZM46.458 33.6783C46.4888 33.2778 46.5796 32.9242 46.7229 32.6091L44.9021 31.7815C44.6547 32.3258 44.5112 32.9097 44.4639 33.5249L46.458 33.6783ZM46.745 32.5565L53.1903 15.9159L51.3253 15.1935L44.88 31.8341L46.745 32.5565ZM53.1828 15.9346C54.9649 11.5956 56.7328 8.12539 58.4805 5.50392L56.8164 4.39452C54.9703 7.16367 53.1444 10.7638 51.3328 15.1748L53.1828 15.9346ZM58.4824 5.50109C60.0432 3.14254 62.301 1.94174 65.3943 1.90618L65.3713 -0.0936842C61.6678 -0.0511141 58.7693 1.44339 56.8145 4.39735L58.4824 5.50109ZM65.3712 1.90618C68.4207 1.94164 70.6614 3.13876 72.2247 5.50109L73.8925 4.39735C71.9402 1.44717 69.0636 -0.0510168 65.3944 -0.0936823L65.3712 1.90618ZM72.2342 5.51522C73.9746 8.05024 75.7399 11.5126 77.5219 15.9289L79.3766 15.1805C77.5648 10.6905 75.7363 7.08258 73.883 4.38321L72.2342 5.51522ZM77.5167 15.9159L83.962 32.5565L85.827 31.8341L79.3817 15.1935L77.5167 15.9159ZM83.9842 32.6091C84.1274 32.9242 84.2182 33.2778 84.249 33.6783L86.2431 33.5249C86.1958 32.9097 86.0523 32.3258 85.8049 31.7815L83.9842 32.6091ZM84.2486 33.6728C84.3071 34.4918 84.0697 35.1519 83.525 35.7253L84.975 37.1028C85.9146 36.1137 86.3413 34.8988 86.2436 33.5303L84.2486 33.6728ZM83.5067 35.7451C83.0092 36.2979 82.3702 36.5859 81.4961 36.5859V38.5859C82.8876 38.5859 84.0846 38.0927 84.9933 37.083L83.5067 35.7451ZM81.4961 36.5859C80.3077 36.5859 79.6229 36.3466 79.2556 36.0481L77.9944 37.6003C78.8771 38.3175 80.1063 38.5859 81.4961 38.5859V36.5859ZM79.3073 36.0932C78.8246 35.6426 78.4068 35.0655 78.063 34.3435L76.2573 35.2034C76.6947 36.122 77.2536 36.9121 77.9427 37.5553L79.3073 36.0932ZM78.0994 34.4302L76.9861 31.3834L75.1076 32.0698L76.2209 35.1166L78.0994 34.4302ZM76.0469 30.7266H64.2695V32.7266H76.0469V30.7266ZM64.2695 30.7266C63.4452 30.7266 62.7908 30.4451 62.2406 29.8659L60.7906 31.2434C61.7248 32.2268 62.9063 32.7266 64.2695 32.7266V30.7266ZM62.2044 29.8297C61.6252 29.2795 61.3438 28.6251 61.3438 27.8008H59.3438C59.3438 29.164 59.8435 30.3455 60.8269 31.2797L62.2044 29.8297ZM117.18 23.875V24.875H118.591L118.123 23.5435L117.18 23.875ZM115.656 19.5391L116.6 19.2076L116.594 19.1914L116.588 19.1755L115.656 19.5391ZM113.781 15.0273L112.855 15.403L112.861 15.4184L112.867 15.4335L113.781 15.0273ZM111.73 11.1016L110.873 11.6161L110.885 11.6365L110.898 11.6563L111.73 11.1016ZM109.328 9.22656L109.415 8.23032L109.33 8.22295L109.245 8.23002L109.328 9.22656ZM104.758 15.0273L103.84 14.6304L103.835 14.6427L104.758 15.0273ZM102.941 19.5391L102.01 19.1755L102.006 19.1857L102.002 19.1959L102.941 19.5391ZM97.375 34.7734L98.2779 35.2034L98.2981 35.1609L98.3143 35.1166L97.375 34.7734ZM95.8516 36.8242L96.5065 37.5799L96.5101 37.5768L95.8516 36.8242ZM90.3438 36.4141L89.6005 37.083L89.6095 37.093L89.6188 37.1028L90.3438 36.4141ZM89.4062 33.6016L88.4092 33.5249L88.4088 33.5303L89.4062 33.6016ZM89.7578 32.1953L90.6682 32.6091L90.68 32.5831L90.6903 32.5565L89.7578 32.1953ZM96.2031 15.5547L95.2781 15.1748L95.2743 15.1841L95.2706 15.1935L96.2031 15.5547ZM101.594 4.94922L102.426 5.50392L102.428 5.50109L101.594 4.94922ZM109.328 0.90625L109.34 -0.0936823L109.328 -0.0938168L109.317 -0.0936842L109.328 0.90625ZM117.004 4.94922L116.17 5.50109L116.175 5.5082L116.18 5.51522L117.004 4.94922ZM122.395 15.5547L123.327 15.1935L123.322 15.1805L122.395 15.5547ZM128.84 32.1953L127.907 32.5565L127.918 32.5831L127.929 32.6091L128.84 32.1953ZM129.191 33.6016L130.189 33.5303L130.188 33.5249L129.191 33.6016ZM128.195 36.4141L127.47 35.7253L127.461 35.7351L127.452 35.7451L128.195 36.4141ZM122.57 36.8242L121.888 37.5553L121.913 37.5787L121.94 37.6003L122.57 36.8242ZM121.105 34.7734L120.166 35.1166L120.182 35.1609L120.203 35.2034L121.105 34.7734ZM119.992 31.7266L120.931 31.3834L120.691 30.7266H119.992V31.7266ZM105.461 30.5547L106.186 29.8659L106.168 29.8473L106.15 29.8297L105.461 30.5547ZM105.289 27.8008C105.289 26.9598 105.563 26.3 106.109 25.754L104.695 24.3398C103.757 25.2781 103.289 26.4543 103.289 27.8008H105.289ZM106.109 25.754C106.705 25.1581 107.389 24.875 108.215 24.875V22.875C106.853 22.875 105.662 23.3731 104.695 24.3398L106.109 25.754ZM108.215 24.875H117.18V22.875H108.215V24.875ZM118.123 23.5435L116.6 19.2076L114.713 19.8705L116.236 24.2065L118.123 23.5435ZM116.588 19.1755C115.958 17.5613 115.327 16.043 114.695 14.6212L112.867 15.4335C113.486 16.8242 114.105 18.3137 114.725 19.9026L116.588 19.1755ZM114.708 14.6516C114.099 13.1502 113.385 11.7807 112.563 10.5469L110.898 11.6563C111.638 12.7662 112.291 14.0139 112.855 15.403L114.708 14.6516ZM112.588 10.5871C111.808 9.28746 110.772 8.34832 109.415 8.23032L109.241 10.2228C109.681 10.2611 110.246 10.5719 110.873 11.6161L112.588 10.5871ZM109.245 8.23002C107.868 8.34478 106.791 9.26084 105.964 10.5665L107.653 11.6366C108.311 10.5985 108.913 10.2646 109.411 10.2231L109.245 8.23002ZM105.964 10.5665C105.19 11.7879 104.483 13.1435 103.84 14.6304L105.676 15.4243C106.283 14.0205 106.943 12.759 107.653 11.6366L105.964 10.5665ZM103.835 14.6427C103.246 16.0568 102.637 17.5678 102.01 19.1755L103.873 19.9026C104.496 18.3072 105.098 16.8104 105.681 15.412L103.835 14.6427ZM102.002 19.1959L96.4357 34.4302L98.3143 35.1166L103.881 19.8823L102.002 19.1959ZM96.4721 34.3435C96.1346 35.0524 95.7062 35.6227 95.1931 36.0716L96.5101 37.5768C97.247 36.932 97.8342 36.1351 98.2779 35.2034L96.4721 34.3435ZM95.1966 36.0685C94.8706 36.3511 94.2553 36.5859 93.1562 36.5859V38.5859C94.4791 38.5859 95.6607 38.313 96.5065 37.5799L95.1966 36.0685ZM93.1562 36.5859C92.2818 36.5859 91.6116 36.2967 91.0687 35.7253L89.6188 37.1028C90.5603 38.0939 91.7651 38.5859 93.1562 38.5859V36.5859ZM91.087 35.7451C90.5743 35.1754 90.344 34.5087 90.4037 33.6728L88.4088 33.5303C88.3122 34.8819 88.7069 36.0902 89.6005 37.083L91.087 35.7451ZM90.4033 33.6783C90.4341 33.2778 90.5249 32.9242 90.6682 32.6091L88.8474 31.7815C88.6001 32.3258 88.4565 32.9097 88.4092 33.5249L90.4033 33.6783ZM90.6903 32.5565L97.1356 15.9159L95.2706 15.1935L88.8253 31.8341L90.6903 32.5565ZM97.1281 15.9346C98.9102 11.5956 100.678 8.12539 102.426 5.50392L100.762 4.39452C98.9156 7.16367 97.0898 10.7638 95.2781 15.1748L97.1281 15.9346ZM102.428 5.50109C103.988 3.14254 106.246 1.94174 109.34 1.90618L109.317 -0.0936842C105.613 -0.0511141 102.715 1.44339 100.76 4.39735L102.428 5.50109ZM109.316 1.90618C112.366 1.94164 114.607 3.13876 116.17 5.50109L117.838 4.39735C115.886 1.44717 113.009 -0.0510168 109.34 -0.0936823L109.316 1.90618ZM116.18 5.51522C117.92 8.05024 119.685 11.5126 121.467 15.9289L123.322 15.1805C121.51 10.6905 119.682 7.08258 117.828 4.38321L116.18 5.51522ZM121.462 15.9159L127.907 32.5565L129.772 31.8341L123.327 15.1935L121.462 15.9159ZM127.929 32.6091C128.073 32.9242 128.164 33.2778 128.194 33.6783L130.188 33.5249C130.141 32.9097 129.998 32.3258 129.75 31.7815L127.929 32.6091ZM128.194 33.6728C128.252 34.4918 128.015 35.1519 127.47 35.7253L128.92 37.1028C129.86 36.1137 130.287 34.8988 130.189 33.5303L128.194 33.6728ZM127.452 35.7451C126.955 36.2979 126.316 36.5859 125.441 36.5859V38.5859C126.833 38.5859 128.03 38.0927 128.939 37.083L127.452 35.7451ZM125.441 36.5859C124.253 36.5859 123.568 36.3466 123.201 36.0481L121.94 37.6003C122.822 38.3175 124.052 38.5859 125.441 38.5859V36.5859ZM123.253 36.0932C122.77 35.6426 122.352 35.0655 122.008 34.3435L120.203 35.2034C120.64 36.122 121.199 36.9121 121.888 37.5553L123.253 36.0932ZM122.045 34.4302L120.931 31.3834L119.053 32.0698L120.166 35.1166L122.045 34.4302ZM119.992 30.7266H108.215V32.7266H119.992V30.7266ZM108.215 30.7266C107.391 30.7266 106.736 30.4451 106.186 29.8659L104.736 31.2434C105.67 32.2268 106.852 32.7266 108.215 32.7266V30.7266ZM106.15 29.8297C105.571 29.2795 105.289 28.6251 105.289 27.8008H103.289C103.289 29.164 103.789 30.3455 104.772 31.2797L106.15 29.8297Z" fill="white" mask="url(#path-1-outside-1_27_253)"/>
</svg>
