<svg width="37" height="37" viewBox="0 0 37 37" fill="none" xmlns="http://www.w3.org/2000/svg">
<path d="M30.8334 27.75V29.2917H10.7917V27.75H30.8334ZM5.39591 26.9792C5.80479 26.9792 6.19692 27.1416 6.48604 27.4307C6.77516 27.7198 6.93758 28.112 6.93758 28.5209C6.93758 28.9297 6.77516 29.3219 6.48604 29.611C6.19692 29.9001 5.80479 30.0625 5.39591 30.0625C4.98704 30.0625 4.59491 29.9001 4.30579 29.611C4.01667 29.3219 3.85425 28.9297 3.85425 28.5209C3.85425 28.112 4.01667 27.7198 4.30579 27.4307C4.59491 27.1416 4.98704 26.9792 5.39591 26.9792ZM30.8334 18.5V20.0417H10.7917V18.5H30.8334ZM5.39591 17.7292C5.80479 17.7292 6.19692 17.8916 6.48604 18.1807C6.77516 18.4699 6.93758 18.862 6.93758 19.2709C6.93758 19.6797 6.77516 20.0719 6.48604 20.361C6.19692 20.6501 5.80479 20.8125 5.39591 20.8125C4.98704 20.8125 4.59491 20.6501 4.30579 20.361C4.01667 20.0719 3.85425 19.6797 3.85425 19.2709C3.85425 18.862 4.01667 18.4699 4.30579 18.1807C4.59491 17.8916 4.98704 17.7292 5.39591 17.7292ZM30.8334 9.25002V10.7917H10.7917V9.25002H30.8334ZM5.39591 8.47919C5.80479 8.47919 6.19692 8.64161 6.48604 8.93073C6.77516 9.21985 6.93758 9.61198 6.93758 10.0209C6.93758 10.4297 6.77516 10.8219 6.48604 11.111C6.19692 11.4001 5.80479 11.5625 5.39591 11.5625C4.98704 11.5625 4.59491 11.4001 4.30579 11.111C4.01667 10.8219 3.85425 10.4297 3.85425 10.0209C3.85425 9.61198 4.01667 9.21985 4.30579 8.93073C4.59491 8.64161 4.98704 8.47919 5.39591 8.47919Z" fill="black"/>
</svg>
