<svg width="25" height="27" viewBox="0 0 25 27" fill="none" xmlns="http://www.w3.org/2000/svg">
<path fill-rule="evenodd" clip-rule="evenodd" d="M5.94784 6.56249C5.94784 5.70206 6.11731 4.85005 6.44658 4.05512C6.77586 3.26018 7.25848 2.53788 7.8669 1.92947C8.47531 1.32105 9.19761 0.838427 9.99255 0.509154C10.7875 0.179881 11.6395 0.0104065 12.4999 0.0104065C13.3604 0.0104065 14.2124 0.179881 15.0073 0.509154C15.8022 0.838427 16.5245 1.32105 17.1329 1.92947C17.7414 2.53788 18.224 3.26018 18.5533 4.05512C18.8825 4.85005 19.052 5.70206 19.052 6.56249C19.052 8.30021 18.3617 9.96676 17.1329 11.1955C15.9042 12.4243 14.2376 13.1146 12.4999 13.1146C10.7622 13.1146 9.09565 12.4243 7.8669 11.1955C6.63814 9.96676 5.94784 8.30021 5.94784 6.56249ZM12.4999 2.32291C11.3755 2.32291 10.2972 2.76958 9.50208 3.56465C8.707 4.35973 8.26034 5.43808 8.26034 6.56249C8.26034 7.6869 8.707 8.76525 9.50208 9.56033C10.2972 10.3554 11.3755 10.8021 12.4999 10.8021C13.6243 10.8021 14.7027 10.3554 15.4978 9.56033C16.2928 8.76525 16.7395 7.6869 16.7395 6.56249C16.7395 5.43808 16.2928 4.35973 15.4978 3.56465C14.7027 2.76958 13.6243 2.32291 12.4999 2.32291ZM6.33325 17.7396C5.41328 17.7396 4.53099 18.105 3.88048 18.7555C3.22996 19.4061 2.8645 20.2884 2.8645 21.2083V23.0398C2.8645 23.0676 2.88454 23.0922 2.91229 23.0969C9.26242 24.1329 15.739 24.1329 22.0875 23.0969C22.1006 23.0939 22.1124 23.0867 22.121 23.0764C22.1296 23.0661 22.1347 23.0532 22.1353 23.0398V21.2083C22.1353 20.2884 21.7699 19.4061 21.1194 18.7555C20.4688 18.105 19.5866 17.7396 18.6666 17.7396H18.1424C18.1012 17.7403 18.0602 17.7465 18.0206 17.7581L16.6871 18.1944C13.9663 19.0828 11.0335 19.0828 8.31275 18.1944L6.97767 17.7581C6.93907 17.7468 6.89917 17.7406 6.85896 17.7396H6.33325ZM0.552002 21.2083C0.552002 19.675 1.1611 18.2046 2.24529 17.1204C3.32949 16.0362 4.79997 15.4271 6.33325 15.4271H6.85742C7.1452 15.4281 7.42475 15.4723 7.69609 15.5597L9.03117 15.9959C11.2851 16.7318 13.7147 16.7318 15.9687 15.9959L17.3038 15.5597C17.5735 15.4718 17.8572 15.4271 18.1409 15.4271H18.6666C20.1999 15.4271 21.6704 16.0362 22.7545 17.1204C23.8387 18.2046 24.4478 19.675 24.4478 21.2083V23.0398C24.4478 24.2022 23.6061 25.192 22.4591 25.3785C15.8633 26.4552 9.13655 26.4552 2.54075 25.3785C1.98603 25.2873 1.4817 25.0021 1.11752 24.5739C0.753337 24.1456 0.552941 23.602 0.552002 23.0398V21.2083Z" fill="black"/>
</svg>
