<svg width="28" height="28" viewBox="0 0 28 28" fill="none" xmlns="http://www.w3.org/2000/svg">
<path fill-rule="evenodd" clip-rule="evenodd" d="M17.1769 18.8126C15.0986 20.4731 12.4635 21.2749 9.81258 21.0532C7.16169 20.8314 4.69632 19.6031 2.9228 17.6204C1.14929 15.6378 0.202267 13.0512 0.276246 10.3921C0.350225 7.73301 1.43959 5.20315 3.32059 3.32215C5.2016 1.44114 7.73145 0.351782 10.3906 0.277803C13.0497 0.203824 15.6362 1.15084 17.6189 2.92436C19.6016 4.69787 20.8299 7.16325 21.0516 9.81414C21.2733 12.465 20.4716 15.1002 18.811 17.1784L26.7598 25.1257C26.8734 25.2316 26.9646 25.3592 27.0278 25.501C27.091 25.6429 27.1249 25.796 27.1277 25.9512C27.1304 26.1065 27.1019 26.2607 27.0437 26.4047C26.9856 26.5486 26.899 26.6794 26.7892 26.7892C26.6794 26.899 26.5486 26.9856 26.4046 27.0437C26.2607 27.1019 26.1065 27.1304 25.9512 27.1277C25.796 27.125 25.6429 27.091 25.501 27.0278C25.3592 26.9646 25.2315 26.8735 25.1257 26.7599L17.1769 18.8126ZM4.95914 16.4045C3.82762 15.2729 3.05696 13.8312 2.74456 12.2617C2.43215 10.6922 2.59203 9.06529 3.20397 7.58662C3.81592 6.10795 4.85247 4.84388 6.18263 3.95415C7.51279 3.06442 9.07685 2.58897 10.6771 2.58789C12.2774 2.58682 13.8421 3.06016 15.1735 3.9481C16.5048 4.83603 17.5431 6.09871 18.157 7.57656C18.771 9.0544 18.933 10.6811 18.6227 12.251C18.3124 13.8209 17.5437 15.2636 16.4137 16.3968L16.406 16.4045L16.3983 16.4107C14.8799 17.9255 12.8223 18.7758 10.6774 18.7746C8.5326 18.7735 6.47591 17.921 4.95914 16.4045Z" fill="black"/>
</svg>
