<svg>
    <symbol id="logo" width="429" height="123" viewBox="0 0 429 123" fill="#8187C8" xmlns="http://www.w3.org/2000/svg">
    <mask id="path-1-outside-1_26_36" maskUnits="userSpaceOnUse" x="-1" y="-1" width="431" height="125" fill="#8187C8">
    <rect fill="white" x="-1" y="-1" width="431" height="125"/>
        <path d="M129.672 18.4609C129.672 22.1068 128.37 25.1667 125.766 27.6406C123.292 30.2448 120.232 31.5469 116.586 31.5469H38.4609C35.987 31.6771 33.9036 32.263 32.2109 33.3047C30.6484 34.2161 29.4766 35.3229 28.6953 36.625C27.9141 37.7969 27.5234 39.0339 27.5234 40.3359C27.5234 41.638 27.9141 42.9401 28.6953 44.2422C29.4766 45.4141 30.6484 46.5208 32.2109 47.5625C33.9036 48.474 35.987 48.9948 38.4609 49.125H93.9297C103.044 49.3854 110.531 51.5339 116.391 55.5703C122.38 59.4766 126.612 64.0339 129.086 69.2422C131.69 74.3203 132.992 79.5286 132.992 84.8672C132.992 90.0755 131.69 95.2839 129.086 100.492C126.482 105.57 122.25 110.128 116.391 114.164C110.531 118.07 103.044 120.023 93.9297 120.023H92.7578C91.9766 120.154 91.1953 120.219 90.4141 120.219H16.5859C12.9401 120.219 9.8151 118.982 7.21094 116.508C4.73698 113.904 3.5 110.779 3.5 107.133C3.5 103.487 4.80208 100.427 7.40625 97.9531C9.88021 95.349 12.9401 94.0469 16.5859 94.0469H95.1016C97.5755 94.1771 99.5938 93.7214 101.156 92.6797C102.849 91.638 104.086 90.4661 104.867 89.1641C105.648 87.7318 106.039 86.2995 106.039 84.8672C106.039 83.9557 105.648 82.7188 104.867 81.1562C104.086 79.4635 102.849 78.0964 101.156 77.0547C99.5938 76.013 97.5755 75.4271 95.1016 75.2969H39.6328C30.5182 75.0365 22.9661 72.9531 16.9766 69.0469C11.1172 65.1406 6.88542 60.7135 4.28125 55.7656C1.80729 50.6875 0.570312 45.5443 0.570312 40.3359C0.570312 35.2578 1.8724 30.2448 4.47656 25.2969C7.08073 20.2188 11.3125 15.7266 17.1719 11.8203C23.0312 7.91406 30.5182 5.83073 39.6328 5.57031H40.8047C41.5859 5.4401 42.3672 5.375 43.1484 5.375H116.586C120.232 5.375 123.292 6.67708 125.766 9.28125C128.37 11.7552 129.672 14.8151 129.672 18.4609ZM198.812 90.3359C198.812 86.6901 200.049 83.6302 202.523 81.1562C205.128 78.5521 208.253 77.25 211.898 77.25H241.781L236.703 62.7969C234.62 57.4583 232.536 52.4453 230.453 47.7578C228.5 42.9401 226.221 38.5781 223.617 34.6719C221.273 30.7656 218.604 28.6823 215.609 28.4219C212.484 28.6823 209.685 30.7656 207.211 34.6719C204.737 38.5781 202.458 42.9401 200.375 47.7578C198.422 52.4453 196.404 57.4583 194.32 62.7969L175.766 113.578C174.464 116.312 172.771 118.591 170.688 120.414C168.734 122.107 165.74 122.953 161.703 122.953C157.927 122.953 154.802 121.651 152.328 119.047C149.984 116.443 148.943 113.318 149.203 109.672C149.333 107.979 149.724 106.417 150.375 104.984L171.859 49.5156C177.849 34.9323 183.839 23.1484 189.828 14.1641C195.688 5.3099 204.281 0.817708 215.609 0.6875C226.807 0.817708 235.336 5.3099 241.195 14.1641C247.185 22.888 253.174 34.6719 259.164 49.5156L280.648 104.984C281.299 106.417 281.69 107.979 281.82 109.672C282.081 113.318 280.974 116.443 278.5 119.047C276.156 121.651 273.096 122.953 269.32 122.953C265.023 122.953 261.833 122.107 259.75 120.414C257.797 118.591 256.169 116.312 254.867 113.578L251.156 103.422H211.898C208.253 103.422 205.193 102.12 202.719 99.5156C200.115 97.0417 198.812 93.9818 198.812 90.3359ZM345.297 90.3359C345.297 86.6901 346.534 83.6302 349.008 81.1562C351.612 78.5521 354.737 77.25 358.383 77.25H388.266L383.188 62.7969C381.104 57.4583 379.021 52.4453 376.938 47.7578C374.984 42.9401 372.706 38.5781 370.102 34.6719C367.758 30.7656 365.089 28.6823 362.094 28.4219C358.969 28.6823 356.169 30.7656 353.695 34.6719C351.221 38.5781 348.943 42.9401 346.859 47.7578C344.906 52.4453 342.888 57.4583 340.805 62.7969L322.25 113.578C320.948 116.312 319.255 118.591 317.172 120.414C315.219 122.107 312.224 122.953 308.188 122.953C304.411 122.953 301.286 121.651 298.812 119.047C296.469 116.443 295.427 113.318 295.688 109.672C295.818 107.979 296.208 106.417 296.859 104.984L318.344 49.5156C324.333 34.9323 330.323 23.1484 336.312 14.1641C342.172 5.3099 350.766 0.817708 362.094 0.6875C373.292 0.817708 381.82 5.3099 387.68 14.1641C393.669 22.888 399.659 34.6719 405.648 49.5156L427.133 104.984C427.784 106.417 428.174 107.979 428.305 109.672C428.565 113.318 427.458 116.443 424.984 119.047C422.641 121.651 419.581 122.953 415.805 122.953C411.508 122.953 408.318 122.107 406.234 120.414C404.281 118.591 402.654 116.312 401.352 113.578L397.641 103.422H358.383C354.737 103.422 351.677 102.12 349.203 99.5156C346.599 97.0417 345.297 93.9818 345.297 90.3359Z"/>
        </mask>
        <path d="M129.672 18.4609C129.672 22.1068 128.37 25.1667 125.766 27.6406C123.292 30.2448 120.232 31.5469 116.586 31.5469H38.4609C35.987 31.6771 33.9036 32.263 32.2109 33.3047C30.6484 34.2161 29.4766 35.3229 28.6953 36.625C27.9141 37.7969 27.5234 39.0339 27.5234 40.3359C27.5234 41.638 27.9141 42.9401 28.6953 44.2422C29.4766 45.4141 30.6484 46.5208 32.2109 47.5625C33.9036 48.474 35.987 48.9948 38.4609 49.125H93.9297C103.044 49.3854 110.531 51.5339 116.391 55.5703C122.38 59.4766 126.612 64.0339 129.086 69.2422C131.69 74.3203 132.992 79.5286 132.992 84.8672C132.992 90.0755 131.69 95.2839 129.086 100.492C126.482 105.57 122.25 110.128 116.391 114.164C110.531 118.07 103.044 120.023 93.9297 120.023H92.7578C91.9766 120.154 91.1953 120.219 90.4141 120.219H16.5859C12.9401 120.219 9.8151 118.982 7.21094 116.508C4.73698 113.904 3.5 110.779 3.5 107.133C3.5 103.487 4.80208 100.427 7.40625 97.9531C9.88021 95.349 12.9401 94.0469 16.5859 94.0469H95.1016C97.5755 94.1771 99.5938 93.7214 101.156 92.6797C102.849 91.638 104.086 90.4661 104.867 89.1641C105.648 87.7318 106.039 86.2995 106.039 84.8672C106.039 83.9557 105.648 82.7188 104.867 81.1562C104.086 79.4635 102.849 78.0964 101.156 77.0547C99.5938 76.013 97.5755 75.4271 95.1016 75.2969H39.6328C30.5182 75.0365 22.9661 72.9531 16.9766 69.0469C11.1172 65.1406 6.88542 60.7135 4.28125 55.7656C1.80729 50.6875 0.570312 45.5443 0.570312 40.3359C0.570312 35.2578 1.8724 30.2448 4.47656 25.2969C7.08073 20.2188 11.3125 15.7266 17.1719 11.8203C23.0312 7.91406 30.5182 5.83073 39.6328 5.57031H40.8047C41.5859 5.4401 42.3672 5.375 43.1484 5.375H116.586C120.232 5.375 123.292 6.67708 125.766 9.28125C128.37 11.7552 129.672 14.8151 129.672 18.4609ZM198.812 90.3359C198.812 86.6901 200.049 83.6302 202.523 81.1562C205.128 78.5521 208.253 77.25 211.898 77.25H241.781L236.703 62.7969C234.62 57.4583 232.536 52.4453 230.453 47.7578C228.5 42.9401 226.221 38.5781 223.617 34.6719C221.273 30.7656 218.604 28.6823 215.609 28.4219C212.484 28.6823 209.685 30.7656 207.211 34.6719C204.737 38.5781 202.458 42.9401 200.375 47.7578C198.422 52.4453 196.404 57.4583 194.32 62.7969L175.766 113.578C174.464 116.312 172.771 118.591 170.688 120.414C168.734 122.107 165.74 122.953 161.703 122.953C157.927 122.953 154.802 121.651 152.328 119.047C149.984 116.443 148.943 113.318 149.203 109.672C149.333 107.979 149.724 106.417 150.375 104.984L171.859 49.5156C177.849 34.9323 183.839 23.1484 189.828 14.1641C195.688 5.3099 204.281 0.817708 215.609 0.6875C226.807 0.817708 235.336 5.3099 241.195 14.1641C247.185 22.888 253.174 34.6719 259.164 49.5156L280.648 104.984C281.299 106.417 281.69 107.979 281.82 109.672C282.081 113.318 280.974 116.443 278.5 119.047C276.156 121.651 273.096 122.953 269.32 122.953C265.023 122.953 261.833 122.107 259.75 120.414C257.797 118.591 256.169 116.312 254.867 113.578L251.156 103.422H211.898C208.253 103.422 205.193 102.12 202.719 99.5156C200.115 97.0417 198.812 93.9818 198.812 90.3359ZM345.297 90.3359C345.297 86.6901 346.534 83.6302 349.008 81.1562C351.612 78.5521 354.737 77.25 358.383 77.25H388.266L383.188 62.7969C381.104 57.4583 379.021 52.4453 376.938 47.7578C374.984 42.9401 372.706 38.5781 370.102 34.6719C367.758 30.7656 365.089 28.6823 362.094 28.4219C358.969 28.6823 356.169 30.7656 353.695 34.6719C351.221 38.5781 348.943 42.9401 346.859 47.7578C344.906 52.4453 342.888 57.4583 340.805 62.7969L322.25 113.578C320.948 116.312 319.255 118.591 317.172 120.414C315.219 122.107 312.224 122.953 308.188 122.953C304.411 122.953 301.286 121.651 298.812 119.047C296.469 116.443 295.427 113.318 295.688 109.672C295.818 107.979 296.208 106.417 296.859 104.984L318.344 49.5156C324.333 34.9323 330.323 23.1484 336.312 14.1641C342.172 5.3099 350.766 0.817708 362.094 0.6875C373.292 0.817708 381.82 5.3099 387.68 14.1641C393.669 22.888 399.659 34.6719 405.648 49.5156L427.133 104.984C427.784 106.417 428.174 107.979 428.305 109.672C428.565 113.318 427.458 116.443 424.984 119.047C422.641 121.651 419.581 122.953 415.805 122.953C411.508 122.953 408.318 122.107 406.234 120.414C404.281 118.591 402.654 116.312 401.352 113.578L397.641 103.422H358.383C354.737 103.422 351.677 102.12 349.203 99.5156C346.599 97.0417 345.297 93.9818 345.297 90.3359Z" />
        <path d="M125.766 27.6406L125.077 26.9156L125.058 26.9333L125.041 26.9519L125.766 27.6406ZM38.4609 31.5469V30.5469H38.4346L38.4084 30.5483L38.4609 31.5469ZM32.2109 33.3047L32.7148 34.1685L32.725 34.1625L32.735 34.1563L32.2109 33.3047ZM28.6953 36.625L29.5274 37.1797L29.5406 37.1599L29.5528 37.1395L28.6953 36.625ZM28.6953 44.2422L27.8378 44.7567L27.8501 44.7771L27.8633 44.7969L28.6953 44.2422ZM32.2109 47.5625L31.6562 48.3945L31.6954 48.4207L31.7368 48.443L32.2109 47.5625ZM38.4609 49.125L38.4084 50.1236L38.4346 50.125H38.4609V49.125ZM93.9297 49.125L93.9582 48.1254L93.944 48.125H93.9297V49.125ZM116.391 55.5703L115.823 56.3938L115.834 56.401L115.844 56.4079L116.391 55.5703ZM129.086 69.2422L128.183 69.6712L128.189 69.685L128.196 69.6985L129.086 69.2422ZM129.086 100.492L129.976 100.949L129.98 100.939L129.086 100.492ZM116.391 114.164L116.945 114.996L116.952 114.992L116.958 114.988L116.391 114.164ZM92.7578 120.023V119.023H92.675L92.5934 119.037L92.7578 120.023ZM7.21094 116.508L6.48594 117.197L6.5036 117.215L6.52219 117.233L7.21094 116.508ZM7.40625 97.9531L8.095 98.6781L8.11359 98.6605L8.13125 98.6419L7.40625 97.9531ZM95.1016 94.0469L95.1541 93.0483L95.1279 93.0469H95.1016V94.0469ZM101.156 92.6797L100.632 91.828L100.617 91.8376L100.602 91.8476L101.156 92.6797ZM104.867 89.1641L105.725 89.6786L105.735 89.6609L105.745 89.6429L104.867 89.1641ZM104.867 81.1562L103.959 81.5753L103.966 81.5895L103.973 81.6035L104.867 81.1562ZM101.156 77.0547L100.602 77.8867L100.617 77.8968L100.632 77.9063L101.156 77.0547ZM95.1016 75.2969L95.1541 74.2983L95.1279 74.2969H95.1016V75.2969ZM39.6328 75.2969L39.6043 76.2965L39.6185 76.2969H39.6328V75.2969ZM16.9766 69.0469L16.4218 69.879L16.4303 69.8845L16.9766 69.0469ZM4.28125 55.7656L3.38226 56.2036L3.38908 56.2176L3.39633 56.2314L4.28125 55.7656ZM4.47656 25.2969L5.36153 25.7626L5.36638 25.7532L4.47656 25.2969ZM39.6328 5.57031V4.57031H39.6185L39.6043 4.57072L39.6328 5.57031ZM40.8047 5.57031V6.57031H40.8875L40.9691 6.55671L40.8047 5.57031ZM125.766 9.28125L125.041 9.97L125.058 9.98859L125.077 10.0062L125.766 9.28125ZM128.672 18.4609C128.672 21.8373 127.479 24.6336 125.077 26.9156L126.454 28.3656C129.261 25.6997 130.672 22.3762 130.672 18.4609H128.672ZM125.041 26.9519C122.759 29.354 119.962 30.5469 116.586 30.5469V32.5469C120.501 32.5469 123.825 31.1356 126.491 28.3294L125.041 26.9519ZM116.586 30.5469H38.4609V32.5469H116.586V30.5469ZM38.4084 30.5483C35.8079 30.6851 33.5529 31.3047 31.6868 32.453L32.735 34.1563C34.2544 33.2214 36.166 32.669 38.5135 32.5455L38.4084 30.5483ZM31.7071 32.4409C30.027 33.421 28.7208 34.6388 27.8378 36.1105L29.5528 37.1395C30.2323 36.007 31.2699 35.0113 32.7148 34.1685L31.7071 32.4409ZM27.8633 36.0703C26.9819 37.3924 26.5234 38.8202 26.5234 40.3359H28.5234C28.5234 39.2475 28.8463 38.2013 29.5274 37.1797L27.8633 36.0703ZM26.5234 40.3359C26.5234 41.8475 26.979 43.3254 27.8378 44.7567L29.5528 43.7277C28.8491 42.5549 28.5234 41.4285 28.5234 40.3359H26.5234ZM27.8633 44.7969C28.7378 46.1086 30.0185 47.3027 31.6562 48.3945L32.7656 46.7305C31.2784 45.7389 30.2154 44.7195 29.5274 43.6875L27.8633 44.7969ZM31.7368 48.443C33.5915 49.4416 35.8279 49.9878 38.4084 50.1236L38.5135 48.1264C36.146 48.0018 34.2158 47.5063 32.685 46.682L31.7368 48.443ZM38.4609 50.125H93.9297V48.125H38.4609V50.125ZM93.9011 50.1246C102.877 50.381 110.162 52.4938 115.823 56.3938L116.958 54.7468C110.901 50.574 103.212 48.3898 93.9582 48.1254L93.9011 50.1246ZM115.844 56.4079C121.716 60.2376 125.805 64.6652 128.183 69.6712L129.989 68.8131C127.419 63.4025 123.044 58.7156 116.937 54.7327L115.844 56.4079ZM128.196 69.6985C130.733 74.6454 131.992 79.6982 131.992 84.8672H133.992C133.992 79.3591 132.647 73.9952 129.976 68.7859L128.196 69.6985ZM131.992 84.8672C131.992 89.9028 130.735 94.9589 128.192 100.045L129.98 100.939C132.646 95.6088 133.992 90.2483 133.992 84.8672H131.992ZM128.196 100.036C125.684 104.935 121.58 109.375 115.823 113.341L116.958 114.988C122.92 110.88 127.28 106.206 129.976 100.949L128.196 100.036ZM115.836 113.332C110.183 117.101 102.904 119.023 93.9297 119.023V121.023C103.184 121.023 110.88 119.04 116.945 114.996L115.836 113.332ZM93.9297 119.023H92.7578V121.023H93.9297V119.023ZM92.5934 119.037C91.8657 119.158 91.1395 119.219 90.4141 119.219V121.219C91.2512 121.219 92.0874 121.149 92.9222 121.01L92.5934 119.037ZM90.4141 119.219H16.5859V121.219H90.4141V119.219ZM16.5859 119.219C13.1922 119.219 10.3149 118.077 7.89969 115.783L6.52219 117.233C9.31529 119.886 12.688 121.219 16.5859 121.219V119.219ZM7.93594 115.819C5.64146 113.404 4.5 110.527 4.5 107.133H2.5C2.5 111.031 3.83249 114.403 6.48594 117.197L7.93594 115.819ZM4.5 107.133C4.5 103.756 5.69291 100.96 8.095 98.6781L6.7175 97.2281C3.91125 99.8941 2.5 103.218 2.5 107.133H4.5ZM8.13125 98.6419C10.4132 96.2398 13.2096 95.0469 16.5859 95.0469V93.0469C12.6706 93.0469 9.34719 94.4581 6.68125 97.2644L8.13125 98.6419ZM16.5859 95.0469H95.1016V93.0469H16.5859V95.0469ZM95.049 95.0455C97.6696 95.1834 99.9196 94.706 101.711 93.5117L100.602 91.8476C99.2679 92.7367 97.4814 93.1707 95.1541 93.0483L95.049 95.0455ZM101.68 93.5313C103.469 92.4307 104.839 91.154 105.725 89.6786L104.01 88.6496C103.332 89.7783 102.229 90.8454 100.632 91.828L101.68 93.5313ZM105.745 89.6429C106.595 88.0844 107.039 86.4889 107.039 84.8672H105.039C105.039 86.1101 104.702 87.3791 103.989 88.6852L105.745 89.6429ZM107.039 84.8672C107.039 83.715 106.56 82.3055 105.762 80.709L103.973 81.6035C104.737 83.132 105.039 84.1964 105.039 84.8672H107.039ZM105.775 80.7372C104.906 78.8536 103.529 77.3408 101.68 76.203L100.632 77.9063C102.169 78.8519 103.266 80.0735 103.959 81.5753L105.775 80.7372ZM101.711 76.2226C99.9586 75.0544 97.7517 74.435 95.1541 74.2983L95.049 76.2955C97.3993 76.4192 99.2289 76.9716 100.602 77.8867L101.711 76.2226ZM95.1016 74.2969H39.6328V76.2969H95.1016V74.2969ZM39.6614 74.2973C30.681 74.0407 23.3209 71.9906 17.5228 68.2093L16.4303 69.8845C22.6114 73.9156 30.3555 76.0322 39.6043 76.2965L39.6614 74.2973ZM17.5313 68.2148C11.7755 64.3776 7.67493 60.0665 5.16617 55.2999L3.39633 56.2314C6.0959 61.3606 10.4589 65.9036 16.4219 69.8789L17.5313 68.2148ZM5.18024 55.3277C2.76703 50.3742 1.57031 45.38 1.57031 40.3359H-0.429688C-0.429688 45.7086 0.847553 51.0008 3.38226 56.2036L5.18024 55.3277ZM1.57031 40.3359C1.57031 35.436 2.82511 30.5817 5.36148 25.7626L3.59164 24.8311C0.919679 29.9079 -0.429688 35.0796 -0.429688 40.3359H1.57031ZM5.36638 25.7532C7.87649 20.8585 11.9763 16.4859 17.7266 12.6524L16.6172 10.9883C10.6487 14.9672 6.28497 19.579 3.58675 24.8406L5.36638 25.7532ZM17.7266 12.6524C23.3899 8.87679 30.68 6.82652 39.6614 6.5699L39.6043 4.57072C30.3565 4.83494 22.6726 6.95134 16.6172 10.9883L17.7266 12.6524ZM39.6328 6.57031H40.8047V4.57031H39.6328V6.57031ZM40.9691 6.55671C41.6968 6.43543 42.423 6.375 43.1484 6.375V4.375C42.3114 4.375 41.4751 4.44478 40.6403 4.58392L40.9691 6.55671ZM43.1484 6.375H116.586V4.375H43.1484V6.375ZM116.586 6.375C119.962 6.375 122.759 7.56791 125.041 9.97L126.491 8.5925C123.825 5.78625 120.501 4.375 116.586 4.375V6.375ZM125.077 10.0062C127.479 12.2882 128.672 15.0846 128.672 18.4609H130.672C130.672 14.5456 129.261 11.2222 126.454 8.55625L125.077 10.0062ZM202.523 81.1562L203.231 81.8634L202.523 81.1562ZM241.781 77.25V78.25H243.193L242.725 76.9185L241.781 77.25ZM236.703 62.7969L237.647 62.4654L237.641 62.4493L237.635 62.4333L236.703 62.7969ZM230.453 47.7578L229.526 48.1335L229.533 48.1488L229.539 48.1639L230.453 47.7578ZM223.617 34.6719L222.76 35.1864L222.772 35.2068L222.785 35.2266L223.617 34.6719ZM215.609 28.4219L215.696 27.4256L215.611 27.4183L215.526 27.4253L215.609 28.4219ZM207.211 34.6719L206.366 34.1368L207.211 34.6719ZM200.375 47.7578L199.457 47.3609L199.452 47.3732L200.375 47.7578ZM194.32 62.7969L193.389 62.4333L193.385 62.4435L193.381 62.4537L194.32 62.7969ZM175.766 113.578L176.668 114.008L176.689 113.966L176.705 113.921L175.766 113.578ZM170.688 120.414L171.342 121.17L171.346 121.167L170.688 120.414ZM152.328 119.047L151.585 119.716L151.594 119.726L151.603 119.736L152.328 119.047ZM149.203 109.672L148.206 109.595L148.206 109.601L149.203 109.672ZM150.375 104.984L151.285 105.398L151.297 105.372L151.307 105.346L150.375 104.984ZM171.859 49.5156L170.934 49.1357L170.931 49.145L170.927 49.1544L171.859 49.5156ZM189.828 14.1641L190.66 14.7188L190.662 14.7159L189.828 14.1641ZM215.609 0.6875L215.621 -0.312431L215.609 -0.312569L215.598 -0.312435L215.609 0.6875ZM241.195 14.1641L240.361 14.7159L240.366 14.723L240.371 14.7301L241.195 14.1641ZM259.164 49.5156L260.097 49.1544L260.091 49.1414L259.164 49.5156ZM280.648 104.984L279.716 105.346L279.726 105.372L279.738 105.398L280.648 104.984ZM281.82 109.672L282.818 109.601L282.817 109.595L281.82 109.672ZM278.5 119.047L277.775 118.358L277.766 118.368L277.757 118.378L278.5 119.047ZM259.75 120.414L259.068 121.145L259.093 121.169L259.119 121.19L259.75 120.414ZM254.867 113.578L253.928 113.921L253.944 113.966L253.964 114.008L254.867 113.578ZM251.156 103.422L252.096 103.079L251.856 102.422H251.156V103.422ZM202.719 99.5156L203.444 98.8269L203.426 98.8083L203.408 98.7906L202.719 99.5156ZM199.812 90.3359C199.812 86.9429 200.953 84.1412 203.231 81.8634L201.816 80.4491C199.146 83.1192 197.812 86.4373 197.812 90.3359H199.812ZM203.231 81.8634C205.649 79.4446 208.521 78.25 211.898 78.25V76.25C207.984 76.25 204.606 77.6596 201.816 80.4491L203.231 81.8634ZM211.898 78.25H241.781V76.25H211.898V78.25ZM242.725 76.9185L237.647 62.4654L235.76 63.1284L240.838 77.5815L242.725 76.9185ZM237.635 62.4333C235.546 57.0821 233.457 52.0547 231.367 47.3517L229.539 48.1639C231.616 52.8359 233.693 57.8346 235.772 63.1604L237.635 62.4333ZM231.38 47.3821C229.404 42.5083 227.095 38.0854 224.449 34.1172L222.785 35.2266C225.348 39.0709 227.596 43.3719 229.526 48.1335L231.38 47.3821ZM224.475 34.1574C222.054 30.1234 219.149 27.7259 215.696 27.4256L215.523 29.4181C218.059 29.6387 220.493 31.4079 222.76 35.1864L224.475 34.1574ZM215.526 27.4253C211.962 27.7224 208.925 30.0968 206.366 34.1368L208.056 35.2069C210.445 31.4345 213.007 29.6422 215.692 29.4184L215.526 27.4253ZM206.366 34.1368C203.861 38.0926 201.558 42.5016 199.457 47.3609L201.293 48.1547C203.358 43.3786 205.613 39.0637 208.056 35.2069L206.366 34.1368ZM199.452 47.3732C197.496 52.0685 195.474 57.0886 193.389 62.4333L195.252 63.1604C197.333 57.8281 199.348 52.8221 201.298 48.1424L199.452 47.3732ZM193.381 62.4537L174.826 113.235L176.705 113.921L195.26 63.1401L193.381 62.4537ZM174.863 113.148C173.614 115.771 172 117.936 170.029 119.661L171.346 121.167C173.541 119.246 175.313 116.854 176.668 114.008L174.863 113.148ZM170.033 119.658C168.339 121.126 165.628 121.953 161.703 121.953V123.953C165.851 123.953 169.129 123.088 171.342 121.17L170.033 119.658ZM161.703 121.953C158.185 121.953 155.328 120.752 153.053 118.358L151.603 119.736C154.276 122.55 157.669 123.953 161.703 123.953V121.953ZM153.071 118.378C150.918 115.985 149.959 113.131 150.201 109.743L148.206 109.601C147.927 113.504 149.051 116.9 151.585 119.716L153.071 118.378ZM150.2 109.749C150.322 108.163 150.686 106.716 151.285 105.398L149.465 104.571C148.762 106.117 148.345 107.795 148.206 109.595L150.2 109.749ZM151.307 105.346L172.792 49.8768L170.927 49.1544L149.443 104.623L151.307 105.346ZM172.784 49.8955C178.759 35.3482 184.72 23.6293 190.66 14.7188L188.996 13.6094C182.957 22.6676 176.939 34.5164 170.934 49.1357L172.784 49.8955ZM190.662 14.7159C196.324 6.15947 204.598 1.81414 215.621 1.68744L215.598 -0.312435C203.965 -0.178719 195.051 4.46032 188.994 13.6122L190.662 14.7159ZM215.598 1.68743C226.486 1.81404 234.697 6.15569 240.361 14.7159L242.029 13.6122C235.975 4.4641 227.129 -0.178623 215.621 -0.312431L215.598 1.68743ZM240.371 14.7301C246.304 23.3718 252.262 35.0829 258.237 49.8898L260.091 49.1414C254.087 34.2608 248.066 22.4042 242.02 13.5981L240.371 14.7301ZM258.232 49.8768L279.716 105.346L281.581 104.623L260.097 49.1544L258.232 49.8768ZM279.738 105.398C280.337 106.716 280.701 108.163 280.823 109.749L282.817 109.595C282.679 107.795 282.262 106.117 281.559 104.571L279.738 105.398ZM280.823 109.743C281.064 113.114 280.052 115.962 277.775 118.358L279.225 119.736C281.896 116.924 283.098 113.521 282.818 109.601L280.823 109.743ZM277.757 118.378C275.619 120.754 272.838 121.953 269.32 121.953V123.953C273.355 123.953 276.694 122.548 279.243 119.716L277.757 118.378ZM269.32 121.953C265.124 121.953 262.206 121.121 260.381 119.638L259.119 121.19C261.46 123.092 264.923 123.953 269.32 123.953V121.953ZM260.432 119.683C258.582 117.956 257.025 115.784 255.77 113.148L253.964 114.008C255.313 116.841 257.011 119.226 259.068 121.145L260.432 119.683ZM255.806 113.235L252.096 103.079L250.217 103.765L253.928 113.921L255.806 113.235ZM251.156 102.422H211.898V104.422H251.156V102.422ZM211.898 102.422C208.522 102.422 205.726 101.229 203.444 98.8269L201.994 100.204C204.66 103.011 207.983 104.422 211.898 104.422V102.422ZM203.408 98.7906C201.005 96.5086 199.812 93.7123 199.812 90.3359H197.812C197.812 94.2512 199.224 97.5747 202.03 100.241L203.408 98.7906ZM349.008 81.1562L349.715 81.8634L349.008 81.1562ZM388.266 77.25V78.25H389.677L389.209 76.9185L388.266 77.25ZM383.188 62.7969L384.131 62.4654L384.125 62.4493L384.119 62.4333L383.188 62.7969ZM376.938 47.7578L376.011 48.1335L376.017 48.1488L376.024 48.1639L376.938 47.7578ZM370.102 34.6719L369.244 35.1864L369.256 35.2068L369.27 35.2266L370.102 34.6719ZM362.094 28.4219L362.18 27.4256L362.096 27.4183L362.011 27.4253L362.094 28.4219ZM353.695 34.6719L352.85 34.1368L353.695 34.6719ZM346.859 47.7578L345.941 47.3609L345.936 47.3732L346.859 47.7578ZM340.805 62.7969L339.873 62.4333L339.869 62.4435L339.865 62.4537L340.805 62.7969ZM322.25 113.578L323.153 114.008L323.173 113.966L323.189 113.921L322.25 113.578ZM317.172 120.414L317.827 121.17L317.83 121.167L317.172 120.414ZM298.812 119.047L298.069 119.716L298.078 119.726L298.087 119.736L298.812 119.047ZM295.688 109.672L294.69 109.595L294.69 109.601L295.688 109.672ZM296.859 104.984L297.77 105.398L297.782 105.372L297.792 105.346L296.859 104.984ZM318.344 49.5156L317.419 49.1357L317.415 49.145L317.411 49.1544L318.344 49.5156ZM336.312 14.1641L337.145 14.7188L337.146 14.7159L336.312 14.1641ZM362.094 0.6875L362.105 -0.312431L362.094 -0.312569L362.082 -0.312435L362.094 0.6875ZM387.68 14.1641L386.846 14.7159L386.85 14.723L386.855 14.7301L387.68 14.1641ZM405.648 49.5156L406.581 49.1544L406.576 49.1414L405.648 49.5156ZM427.133 104.984L426.2 105.346L426.211 105.372L426.222 105.398L427.133 104.984ZM428.305 109.672L429.302 109.601L429.302 109.595L428.305 109.672ZM424.984 119.047L424.259 118.358L424.25 118.368L424.241 118.378L424.984 119.047ZM406.234 120.414L405.552 121.145L405.577 121.169L405.604 121.19L406.234 120.414ZM401.352 113.578L400.412 113.921L400.428 113.966L400.449 114.008L401.352 113.578ZM397.641 103.422L398.58 103.079L398.34 102.422H397.641V103.422ZM349.203 99.5156L349.928 98.8269L349.91 98.8083L349.892 98.7906L349.203 99.5156ZM346.297 90.3359C346.297 86.9429 347.437 84.1412 349.715 81.8634L348.301 80.4491C345.631 83.1192 344.297 86.4373 344.297 90.3359H346.297ZM349.715 81.8634C352.134 79.4446 355.005 78.25 358.383 78.25V76.25C354.469 76.25 351.09 77.6596 348.301 80.4491L349.715 81.8634ZM358.383 78.25H388.266V76.25H358.383V78.25ZM389.209 76.9185L384.131 62.4654L382.244 63.1284L387.322 77.5815L389.209 76.9185ZM384.119 62.4333C382.031 57.0821 379.942 52.0547 377.851 47.3517L376.024 48.1639C378.1 52.8359 380.178 57.8346 382.256 63.1604L384.119 62.4333ZM377.864 47.3821C375.888 42.5083 373.579 38.0854 370.934 34.1172L369.27 35.2266C371.832 39.0709 374.08 43.3719 376.011 48.1335L377.864 47.3821ZM370.959 34.1574C368.539 30.1234 365.634 27.7259 362.18 27.4256L362.007 29.4181C364.543 29.6387 366.977 31.4079 369.244 35.1864L370.959 34.1574ZM362.011 27.4253C358.446 27.7224 355.409 30.0968 352.85 34.1368L354.54 35.2069C356.929 31.4345 359.491 29.6422 362.177 29.4184L362.011 27.4253ZM352.85 34.1368C350.345 38.0926 348.043 42.5016 345.942 47.3609L347.777 48.1547C349.843 43.3786 352.098 39.0637 354.54 35.2069L352.85 34.1368ZM345.936 47.3732C343.98 52.0685 341.959 57.0886 339.873 62.4333L341.736 63.1604C343.817 57.8281 345.833 52.8221 347.782 48.1424L345.936 47.3732ZM339.865 62.4537L321.311 113.235L323.189 113.921L341.744 63.1401L339.865 62.4537ZM321.347 113.148C320.098 115.771 318.485 117.936 316.513 119.661L317.83 121.167C320.026 119.246 321.798 116.854 323.153 114.008L321.347 113.148ZM316.517 119.658C314.824 121.126 312.112 121.953 308.188 121.953V123.953C312.336 123.953 315.614 123.088 317.827 121.17L316.517 119.658ZM308.188 121.953C304.67 121.953 301.812 120.752 299.538 118.358L298.087 119.736C300.761 122.55 304.153 123.953 308.188 123.953V121.953ZM299.556 118.378C297.402 115.985 296.443 113.131 296.685 109.743L294.69 109.601C294.411 113.504 295.535 116.9 298.069 119.716L299.556 118.378ZM296.685 109.749C296.807 108.163 297.171 106.716 297.77 105.398L295.949 104.571C295.246 106.117 294.829 107.795 294.69 109.595L296.685 109.749ZM297.792 105.346L319.276 49.8768L317.411 49.1544L295.927 104.623L297.792 105.346ZM319.269 49.8955C325.244 35.3482 331.204 23.6293 337.145 14.7188L335.48 13.6094C329.442 22.6676 323.423 34.5164 317.419 49.1357L319.269 49.8955ZM337.146 14.7159C342.809 6.15947 351.082 1.81414 362.105 1.68744L362.082 -0.312435C350.449 -0.178719 341.535 4.46032 335.479 13.6122L337.146 14.7159ZM362.082 1.68743C372.97 1.81404 381.181 6.15569 386.846 14.7159L388.514 13.6122C382.46 4.4641 373.613 -0.178623 362.105 -0.312431L362.082 1.68743ZM386.855 14.7301C392.788 23.3718 398.746 35.0829 404.721 49.8898L406.576 49.1414C400.571 34.2608 394.55 22.4042 388.504 13.5981L386.855 14.7301ZM404.716 49.8768L426.2 105.346L428.065 104.623L406.581 49.1544L404.716 49.8768ZM426.222 105.398C426.821 106.716 427.186 108.163 427.308 109.749L429.302 109.595C429.163 107.795 428.746 106.117 428.043 104.571L426.222 105.398ZM427.307 109.743C427.548 113.114 426.536 115.962 424.259 118.358L425.709 119.736C428.381 116.924 429.582 113.521 429.302 109.601L427.307 109.743ZM424.241 118.378C422.103 120.754 419.322 121.953 415.805 121.953V123.953C419.839 123.953 423.178 122.548 425.728 119.716L424.241 118.378ZM415.805 121.953C411.608 121.953 408.691 121.121 406.865 119.638L405.604 121.19C407.945 123.092 411.407 123.953 415.805 123.953V121.953ZM406.917 119.683C405.067 117.956 403.51 115.784 402.254 113.148L400.449 114.008C401.798 116.841 403.496 119.226 405.552 121.145L406.917 119.683ZM402.291 113.235L398.58 103.079L396.701 103.765L400.412 113.921L402.291 113.235ZM397.641 102.422H358.383V104.422H397.641V102.422ZM358.383 102.422C355.006 102.422 352.21 101.229 349.928 98.8269L348.478 100.204C351.144 103.011 354.468 104.422 358.383 104.422V102.422ZM349.892 98.7906C347.49 96.5086 346.297 93.7123 346.297 90.3359H344.297C344.297 94.2512 345.708 97.5747 348.514 100.241L349.892 98.7906Z"  mask="url(#path-1-outside-1_26_36)"/>
    </symbol>
</svg>
